<?xml version="1.0" standalone="no"?>
<!DOCTYPE svg PUBLIC "-//W3C//DTD SVG 1.1//EN" "http://www.w3.org/Graphics/SVG/1.1/DTD/svg11.dtd" >
<svg xmlns="http://www.w3.org/2000/svg" xmlns:xlink="http://www.w3.org/1999/xlink" version="1.1">
<metadata></metadata>
<defs>
<font id="cupcake_smilesregular" horiz-adv-x="620" >
<font-face units-per-em="2048" ascent="1638" descent="-410" />
<missing-glyph horiz-adv-x="508" />
<glyph unicode="&#xd;" horiz-adv-x="508" />
<glyph horiz-adv-x="0" />
<glyph horiz-adv-x="0" />
<glyph unicode=" "  horiz-adv-x="508" />
<glyph unicode="&#x09;" horiz-adv-x="508" />
<glyph unicode="&#xa0;" horiz-adv-x="508" />
<glyph unicode="!" horiz-adv-x="199" d="M0 62q10 58 57 58q50 0 57 -63q-10 -57 -57 -57q-49 0 -57 62zM3 317q0 250 2 1032q11 55 52 55q45 0 52 -60q0 -210 -2 -1029q-11 -55 -52 -55q-44 0 -52 57z" />
<glyph unicode="&#x22;" horiz-adv-x="404" d="M0 1182v115q6 62 52 62t52 -62v-115q-6 -62 -52 -62t-52 62zM200 1182v115q6 62 52 62t52 -62v-115q-6 -62 -52 -62t-52 62z" />
<glyph unicode="#" d="M0 465q0 47 62 52h19l31 422h-24q-62 5 -62 52q0 46 62 52h32q22 340 33 340q22 20 42 21q52 -12 52 -52q-18 -259 -23 -312h85q25 341 37 341q21 19 41 20q52 -12 52 -52l-26 -312h58q62 -5 62 -52q0 -46 -62 -52h-65q-24 -245 -34 -413h39q62 -6 62 -52t-62 -52h-50 q-30 -393 -41 -393q-21 -19 -42 -20q-52 12 -52 52q29 336 29 361h-3q-22 -3 -36 -3h-34q-5 0 -5 -5q-24 -387 -37 -387q-21 -20 -41 -21q-52 12 -52 52l26 361h-11q-62 6 -62 52zM190 517q18 0 75 3v3q34 391 34 413h-83q-26 -342 -26 -419z" />
<glyph unicode="$" horiz-adv-x="633" d="M0 1038v8q0 138 62 252q73 94 117 94q21 6 21 10v55q6 62 52 62t52 -62v-60l63 -41q70 -54 106 -193q5 -13 5 -21q-10 -54 -52 -54q-48 0 -67 101q-32 66 -52 81h-3v-536q65 -33 104 -65q133 -135 133 -346v-13q0 -141 -94 -247q-70 -65 -143 -65v-26q-6 -62 -52 -62 t-52 62v37q-97 35 -135 112q-31 61 -31 145v31q0 53 39 71l15 2q52 -13 52 -49q-2 -27 -2 -42v-5q0 -115 57 -148h5v522q-117 60 -169 195q-31 108 -31 195zM104 1038q0 -171 91 -262h5v512h-8q-88 -70 -88 -250zM304 105q5 0 5 -3q54 0 104 91q24 75 24 128q0 197 -125 291 h-8v-507z" />
<glyph unicode="%" horiz-adv-x="697" d="M0 1074v15q0 218 140 260q14 3 24 3h2q113 0 128 -208v-26q0 -117 -52 -216q-43 -62 -99 -62q-106 0 -138 187q-5 26 -5 47zM57 55q393 1314 403 1328q21 20 42 21q41 0 52 -55q-393 -1314 -403 -1328q-21 -20 -42 -21q-41 0 -52 55zM104 1082q0 -77 36 -136h3 q13 0 36 81q11 77 11 99q-5 113 -29 119q-48 0 -57 -156v-7zM309 294v10q0 208 130 258q24 5 34 5h3q101 0 125 -172q2 -12 2 -34v-5q0 -258 -132 -299q-4 -2 -19 -2q-122 0 -143 239zM413 296q0 -76 37 -135h2q47 52 47 200q-8 95 -28 102q-40 0 -58 -133v-34z" />
<glyph unicode="&#x26;" horiz-adv-x="615" d="M0 320v5q0 272 96 413v8q-57 208 -57 302v18q0 252 112 325q31 13 52 13q111 0 171 -185q21 -83 21 -158q0 -200 -135 -299q-42 -37 -42 -44q0 -32 136 -320h5q19 130 41 130q21 8 26 8q46 0 52 -60q-15 -106 -52 -219q95 -163 104 -184l3 -11q-12 -52 -52 -52 q-42 0 -99 117q-7 13 -10 13q-67 -100 -133 -130q-41 -10 -67 -10h-3q-127 0 -164 224q-5 55 -5 96zM104 320q0 -180 62 -216h6q76 0 137 148q-101 204 -161 349h-2q-13 0 -32 -125q-10 -61 -10 -156zM143 1056q0 -92 39 -224h3q106 70 106 229q0 151 -67 229q-10 7 -19 7 q-51 -13 -62 -215v-26z" />
<glyph unicode="'" horiz-adv-x="203" d="M0 1182v115q6 62 52 62t52 -62v-115q-6 -62 -52 -62t-52 62z" />
<glyph unicode="(" horiz-adv-x="391" d="M0 620v11q0 478 182 772q21 19 42 21q52 -12 52 -52q0 -11 -50 -99q-122 -268 -122 -650q0 -486 133 -655l2 -16q-12 -52 -52 -52q-80 0 -153 299q-34 174 -34 421z" />
<glyph unicode=")" horiz-adv-x="391" d="M0 -48q0 11 49 99q123 267 123 650q0 485 -133 655l-3 16q12 52 52 52q80 0 154 -299q34 -174 34 -422v-10q0 -478 -182 -772q-22 -20 -42 -21q-52 12 -52 52z" />
<glyph unicode="*" horiz-adv-x="598" d="M0 860q0 30 101 114q60 54 60 60q-142 93 -148 104q-6 7 -10 29q12 52 52 52q19 0 130 -76h7q0 24 -5 96q12 52 52 52q57 0 57 -114q0 -15 3 -42q5 0 120 71q13 5 18 5q52 -12 52 -52t-115 -99l-39 -29v-5q128 -149 128 -164l2 -10q-12 -52 -52 -52q-33 0 -111 107 q-51 59 -55 59q-29 -22 -166 -148q-8 -6 -29 -10q-52 12 -52 52z" />
<glyph unicode="+" horiz-adv-x="671" d="M0 608q0 46 62 52h154v151q6 62 52 62t52 -62v-151h151q62 -6 62 -52t-62 -52h-151v-154q-6 -62 -52 -62t-52 62v154h-154q-62 6 -62 52z" />
<glyph unicode="," horiz-adv-x="227" d="M0 -55l31 93q0 73 57 73q50 0 58 -62q-42 -156 -86 -156q-5 -3 -8 -3q-42 0 -52 55z" />
<glyph unicode="-" horiz-adv-x="618" d="M0 592q0 46 62 52h409q62 -6 62 -52t-62 -52h-409q-62 6 -62 52z" />
<glyph unicode="." horiz-adv-x="198" d="M0 62q10 58 57 58q50 0 57 -63q-10 -57 -57 -57q-49 0 -57 62z" />
<glyph unicode="/" horiz-adv-x="432" d="M0 55q244 1285 257 1323q21 26 45 26q41 0 52 -55q-245 -1285 -258 -1323q-21 -26 -44 -26q-42 0 -52 55z" />
<glyph unicode="0" horiz-adv-x="623" d="M0 564v3q0 613 60 702q73 135 177 135h7q155 0 240 -211q24 -52 41 -304q5 -162 5 -231v-47q0 -438 -91 -533q-76 -78 -166 -78h-18q-140 0 -216 133q-39 90 -39 431zM104 534q0 -357 51 -389q54 -33 108 -41h2q88 0 122 88q39 155 39 427v31q0 275 -31 478 q-53 172 -151 172q-94 0 -122 -203q-18 -236 -18 -533v-30z" />
<glyph unicode="1" horiz-adv-x="396" d="M0 1209q0 36 112 109q101 86 127 86q52 -12 52 -52l-18 -1300q-12 -52 -52 -52q-52 12 -52 52q16 1072 16 1188h-3q-5 0 -104 -75q-21 -8 -26 -8q-52 12 -52 52z" />
<glyph unicode="2" horiz-adv-x="618" d="M0 62q0 18 109 195q320 575 320 843v26q0 86 -65 143q-49 31 -81 31q-84 0 -166 -130q-18 -16 -39 -18q-52 12 -52 52q26 82 138 166q54 34 125 34q103 0 200 -120q44 -87 44 -150v-42q0 -249 -255 -741l-130 -234v-5q310 -5 310 -18q19 -22 20 -42q-12 -52 -52 -52 q-400 8 -400 18q-26 21 -26 44z" />
<glyph unicode="3" d="M0 1318q0 61 153 81q40 5 76 5q183 0 268 -172q31 -91 31 -145v-55q0 -91 -76 -192q-65 -71 -101 -91v-3q105 -56 153 -171q29 -103 29 -167v-5q0 -274 -211 -364q-91 -39 -218 -39q-57 6 -77 17.5t-24 37.5q12 52 52 52q47 -3 59 -3q227 0 294 156q21 53 21 148 q0 119 -68 206q-71 59 -143 59h-46l-68 -7q-52 12 -52 52q0 54 120 65q86 27 150 72q102 85 102 185v39q0 110 -73 182q-53 39 -125 39q-76 0 -174 -34q-52 12 -52 52z" />
<glyph unicode="4" horiz-adv-x="623" d="M0 533q0 69 148 507q60 157 107 252q60 112 117 112q68 0 86 -148q20 -188 20 -710h3q62 -6 62 -52t-67 -55v-2q0 -416 -18 -416q-22 -20 -42 -21q-52 13 -52 49q8 286 8 385h-138q-167 0 -213 44q-21 23 -21 55zM109 549q54 -11 133 -11h119q13 0 13 5q0 517 -20 702h-3 q-49 -70 -177 -455q-65 -212 -65 -241z" />
<glyph unicode="5" horiz-adv-x="623" d="M0 949v52q10 353 34 361q32 42 132 42h19q109 0 236 -21q29 -23 29 -47q0 -45 -60 -52q-138 16 -213 16h-8q-49 0 -49 -13q-16 -191 -16 -294v-36q0 -43 5 -120l5 -2l78 5q223 0 302 -193q39 -85 39 -239v-2q0 -124 -70 -237q-123 -169 -385 -169h-8q-62 6 -62 52t62 52 q279 0 343 198q16 77 16 111q0 261 -140 307q-49 16 -97 16l-109 -8q-69 0 -78 120q-5 37 -5 101z" />
<glyph unicode="6" horiz-adv-x="623" d="M0 517q0 367 117 674q94 213 143 213h3q52 -12 52 -52q0 -15 -68 -125q-57 -129 -91 -252q-24 -100 -42 -244h6q90 54 171 54q191 0 237 -283q10 -90 10 -128v-7q0 -263 -182 -354q-52 -13 -65 -13h-18q-106 0 -192 138q-81 141 -81 379zM104 543q0 -222 52 -325 q55 -114 120 -114h7q91 0 138 146q13 46 13 124q0 142 -49 250q-38 57 -94 57q-72 0 -184 -80q-3 -39 -3 -58z" />
<glyph unicode="7" horiz-adv-x="639" d="M0 1352q0 43 57 52q62 0 437 -3q55 -8 55 -54q-245 -1269 -260 -1321q-21 -26 -45 -26q-41 0 -52 55q227 1160 240 1242q-273 3 -375 3q-57 9 -57 52z" />
<glyph unicode="8" horiz-adv-x="627" d="M0 463v8q0 110 42 221q17 38 72 91q-85 94 -85 273q1 263 169 340q39 8 65 8h2q71 0 148 -73q64 -78 81.5 -154.5t17.5 -115.5q0 -239 -114 -299l-8 -8q88 -82 101 -125q39 -122 39 -210v-3q0 -348 -215 -413q-33 -3 -39 -3q-148 0 -234 190q-42 104 -42 273zM104 463 q0 -287 133 -351q19 -8 44 -8q90 0 138 182q7 60 7 130q0 121 -54 213q-37 50 -148 86q-71 0 -104 -114q-16 -100 -16 -138zM133 1053q0 -172 88 -218q13 -8 21 -8q96 10 129 56t37 178q0 85 -52 177q-46 62 -99 62q-100 0 -122 -198q-2 -41 -2 -49z" />
<glyph unicode="9" horiz-adv-x="618" d="M0 952v13q0 366 216 434q23 5 34 5h15q124 0 211 -182q57 -166 57 -322v-34q0 -454 -190 -726q-101 -126 -166 -140q-52 12 -52 52q0 33 78 83q121 116 187 367q16 73 26 148h-3q-98 -47 -171 -47h-11q-184 0 -223 263q-8 48 -8 86zM104 954q10 -192 78 -236 q28 -11 49 -11h8q78 0 187 73l3 31v81q0 239 -96 369q-37 39 -78 39h-3q-50 0 -99 -78q-49 -73 -49 -268z" />
<glyph unicode=":" horiz-adv-x="205" d="M0 62q10 58 57 58q50 0 57 -63q-10 -57 -57 -57q-49 0 -57 62zM0 406q10 57 57 57q50 0 57 -63q-10 -57 -57 -57q-49 0 -57 63z" />
<glyph unicode=";" horiz-adv-x="227" d="M0 -75l31 93q0 73 57 73q50 0 58 -62q-42 -156 -86 -156q-5 -3 -8 -3q-42 0 -52 55zM31 377q11 57 57 57q50 0 58 -62q-11 -57 -58 -57q-49 0 -57 62z" />
<glyph unicode="&#x3c;" horiz-adv-x="635" d="M0 628q0 31 101 111q322 291 338 297l16 2q52 -12 52 -52q0 -33 -112 -119l-255 -232q12 -12 375 -244q16 -18 18 -39q-12 -52 -52 -52q-24 0 -250 153q-221 135 -221 149q-5 0 -10 26z" />
<glyph unicode="=" horiz-adv-x="652" d="M0 552q0 46 62 52h409q62 -6 62 -52t-62 -52h-409q-62 6 -62 52zM0 760q0 46 62 52h409q62 -6 62 -52t-62 -52h-409q-62 6 -62 52z" />
<glyph unicode="&#x3e;" horiz-adv-x="652" d="M0 986q12 52 52 52q24 0 250 -153q221 -134 221 -148q5 0 10 -26q0 -31 -101 -112q-322 -291 -338 -296l-16 -3q-52 12 -52 52q0 33 112 120l255 231q-12 13 -375 244q-16 19 -18 39z" />
<glyph unicode="?" horiz-adv-x="639" d="M0 62q10 58 57 58q50 0 57 -63q-10 -57 -57 -57q-49 0 -57 62zM0 330v276q0 62 62 62h32q132 0 247 99q88 101 88 247v8q0 183 -192 252q-49 18 -201 34q-28 23 -28 47q0 46 62 52q129 0 273 -65q58 -33 115 -97q75 -102 75 -215v-24q0 -163 -104 -296 q-111 -105 -198 -122q-87 -24 -127 -24v-234q-6 -62 -52 -62t-52 62z" />
<glyph unicode="@" horiz-adv-x="924" d="M0 770q0 439 224 572q106 62 215 62h6q147 0 262 -161q128 -192 128 -588q0 -376 -86 -455q-36 -23 -63 -23q-69 0 -132 114q-45 -10 -115 -15q-164 0 -226 137q-18 55 -18 112v39q8 123 68 219q58 91 158 150q78 33 83 37v2q-17 104 -67 104h-18q-56 -5 -167 -93 q-19 -5 -21 -5q-52 12 -52 52q0 53 169 135q48 18 89 18q53 -6 88 -31q56 -41 83 -161q50 -259 50 -575v-99q16 -28 28 -28q45 96 45 371q0 477 -190 609q-56 31 -104 31q-145 0 -250 -130q-83 -153 -83 -406q0 -389 179 -613q64 -47 97 -47h5q16 0 39 3q52 -12 52 -52 q0 -48 -70 -55h-32q-100 0 -205 130q-169 247 -169 640zM299 533q0 -122 73 -140q24 -11 44 -11h16q77 0 122 18v8q0 214 -29 453h-5q-116 -35 -187 -162q-34 -87 -34 -143v-23z" />
<glyph unicode="A" d="M0 55q110 969 187 1292q28 57 65 57q71 0 99 -198q31 -117 101 -577q24 -142 81 -564q-12 -52 -52 -52q-54 0 -62 112q-47 368 -65 450h-185q-13 -90 -68 -539q-19 -36 -49 -36q-42 0 -52 55zM182 686q3 -5 3 -7h153v2q-23 177 -81 479h-5q-39 -240 -70 -474z" />
<glyph unicode="B" horiz-adv-x="613" d="M0 939v127q0 287 39 315q23 23 68 23h10q111 0 226 -109q117 -135 117 -354q0 -189 -127 -278v-5q42 -12 132 -109q68 -112 68 -214v-44q0 -78 -55 -169q-103 -122 -273 -122h-31q-110 0 -130 36q-23 241 -44 903zM104 1058q0 -223 8 -343q14 -3 21 -3q223 0 223 234 q0 270 -195 346l-44 8q-13 -52 -13 -242zM117 606q0 -50 23 -499l26 -3h32q162 0 213 112q18 45 18 83v29q0 131 -99 210q-105 70 -200 70h-13v-2z" />
<glyph unicode="C" horiz-adv-x="625" d="M0 663q0 341 91 585q64 156 187 156h11q151 0 200 -174q10 -49 10 -91v-5q-6 -63 -52 -63q-54 0 -54 99q-16 127 -91 127q0 3 -21 3q-61 0 -89 -83q-88 -211 -88 -559q0 -380 107 -531q25 -23 57 -23q104 0 138 65q23 52 23 127q0 25 -8 71q11 54 52 54q60 0 60 -127 q0 -247 -200 -289q-34 -5 -63 -5h-10q-184 0 -242 382q-18 104 -18 281z" />
<glyph unicode="D" horiz-adv-x="627" d="M0 907q0 338 26 440q22 57 73 57h18q74 0 174 -65q242 -183 242 -718v-28q0 -179 -62 -359q-108 -234 -299 -234h-11q-130 0 -130 135q-31 295 -31 772zM104 900q0 -470 34 -788q10 -8 23 -8h3q184 0 244 289q21 123 21 208v13q0 516 -218 655q-55 28 -89 28 q-18 -115 -18 -397z" />
<glyph unicode="E" horiz-adv-x="611" d="M0 380q0 469 52 907q0 55 73 91q66 26 158 26h6q197 0 197 -36q4 0 8 -24q0 -45 -60 -52q-64 8 -148 8q-133 0 -133 -39q-39 -373 -39 -504h3l23 2q59 0 255 5q52 -12 52 -52q0 -46 -62 -52l-276 -7q0 -10 -2 -24q-3 -162 -3 -249q5 -273 42 -273q22 -3 33 -3 q101 0 289 49q52 -12 52 -52q0 -52 -120 -70q-124 -31 -218 -31h-13q-85 0 -122 52q-41 45 -47 328z" />
<glyph unicode="F" horiz-adv-x="618" d="M0 1178v54q0 96 21 115q45 57 231 57q265 0 265 -29q8 0 16 -33q0 -46 -60 -52q-100 10 -221 10q-145 0 -145 -26q-3 -13 -3 -31v-57q0 -145 8 -406l283 5q52 -12 52 -52q-12 -52 -52 -52l-281 -5q0 -78 21 -624q-12 -52 -52 -52q-54 0 -54 99q-29 813 -29 1079z" />
<glyph unicode="G" d="M0 653q0 400 112 642q66 112 169 112h28q91 0 149 -97q31 -55 31 -140v-34q-8 -65 -55 -65q-36 0 -52 47l3 26v18q0 141 -86 141h-10q-73 0 -102 -99q-83 -205 -83 -557q0 -330 86 -496q29 -47 62 -47h13q95 0 138 130q26 74 26 203q-7 234 -29 234h-5q-23 0 -96 -5 q-52 12 -52 52q0 46 62 52q24 5 89 5q109 -9 109 -73q26 -113 26 -270q0 -322 -172 -409q-55 -23 -91 -23h-28q-103 0 -174 166q-68 198 -68 487z" />
<glyph unicode="H" d="M0 60q27 1305 34 1305q23 29 47 29q52 -12 52 -52l-13 -604h2q55 0 291 -2v2l-13 614q12 52 52 52q52 0 52 -83q3 -54 29 -1269q-12 -52 -52 -52q-52 0 -52 83l-13 549q-250 2 -299 2v-2q-12 -596 -18 -596q-24 -28 -47 -28q-52 12 -52 52z" />
<glyph unicode="I" horiz-adv-x="210" d="M0 1349q10 55 52 55q43 0 52 -57q3 -982 3 -1292q-11 -55 -52 -55q-44 0 -52 57q-3 1000 -3 1292z" />
<glyph unicode="J" horiz-adv-x="657" d="M0 237v62q0 120 36 140q11 7 26 8q52 -13 52 -49q-10 -72 -10 -107v-47q0 -113 60 -137l15 -3h8q108 0 130 351q5 106 5 148q0 289 -41 697h-203q-62 6 -62 52t62 52h408q63 -6 63 -52t-63 -52h-101q41 -386 41 -705q0 -459 -140 -564q-46 -31 -88 -31h-26 q-107 0 -156 138q-16 51 -16 99z" />
<glyph unicode="K" d="M0 52l10 1300q12 52 52 52q52 -12 52 -52q-2 -265 -2 -424v-67h2q11 16 276 520q18 15 39 18q52 -12 52 -52q0 -15 -187 -375q-145 -268 -154 -296l390 -590l3 -16q-12 -52 -52 -52q-37 0 -94 102q-274 409 -278 410l-2 -5v-70q0 -146 -3 -403q-12 -52 -52 -52 q-52 12 -52 52z" />
<glyph unicode="L" horiz-adv-x="615" d="M0 447q0 367 8 902q10 55 52 55q41 0 52 -55q-8 -555 -8 -902q3 -340 8 -340q48 -3 70 -3q139 0 302 8q36 0 49 -52q0 -47 -68 -55q-204 -5 -283 -5q-149 0 -161 39q-21 0 -21 408z" />
<glyph unicode="M" horiz-adv-x="820" d="M0 55q56 1305 62 1305q24 28 47 28q51 0 76 -117q171 -519 176 -522h3q166 581 187 634q21 20 42 21q54 0 54 -99q13 -186 81 -1253q-12 -52 -52 -52q-55 0 -55 99q-54 825 -59 938h-3q-10 -12 -107 -358q-40 -146 -57 -156q-18 -8 -31 -11q-51 0 -78 125l-135 403h-3 q-41 -980 -49 -1009q-24 -28 -47 -28q-52 12 -52 52z" />
<glyph unicode="N" horiz-adv-x="613" d="M0 1352q12 52 52 52q52 0 83 -140l286 -856h3q-3 115 -16 934q12 52 52 52q52 -12 52 -52l21 -1285q-12 -52 -52 -52q-52 0 -83 141l-289 863h-2l2 -83q0 -125 8 -874q-12 -52 -52 -52q-52 12 -52 52z" />
<glyph unicode="O" horiz-adv-x="630" d="M0 723v15q0 452 70 557q76 109 203 109h3q54 0 124 -44q56 -37 81 -120q34 -121 49 -348q7 0 13 -346q0 -380 -72 -455q-79 -91 -188 -91h-13q-130 0 -213 117q-57 99 -57 606zM104 731q0 -324 31 -533q33 -94 143 -94h3q117 0 140 138q18 147 18 309q0 383 -54 653 q-31 96 -117 96q-116 0 -141 -159q-23 -163 -23 -410z" />
<glyph unicode="P" horiz-adv-x="615" d="M0 952v129q0 237 29 290q10 21 91 33h5q223 0 359 -231q54 -119 54 -258q0 -273 -182 -359q-66 -26 -117 -26h-52q-11 0 -75 8q5 -235 15 -486q-12 -52 -52 -52q-54 0 -54 99q-11 249 -21 853zM104 959q0 -73 5 -309q16 -11 86 -16h39q135 0 185 146q15 66 15 138 q0 238 -169 343q-67 39 -145 39q-16 0 -16 -286v-55z" />
<glyph unicode="Q" horiz-adv-x="635" d="M0 887q0 379 73 455q78 91 187 91h13q130 0 213 -117q57 -100 57 -606v-16q0 -452 -70 -556q42 -69 42 -86q-12 -52 -52 -52q-38 0 -63 60h-2q-60 -31 -128 -31h-2q-54 0 -125 44q-56 37 -81 119q-62 256 -62 695zM104 881q0 -397 57 -660q31 -88 115 -88q50 0 67 23 q-101 171 -101 190q12 52 52 52t86 -99q22 -39 26 -39q25 0 33 442q0 324 -31 533q-33 94 -143 94h-2q-117 0 -141 -138q-18 -147 -18 -310z" />
<glyph unicode="R" horiz-adv-x="627" d="M0 796v87q0 437 48 490q33 31 79 31h16q131 0 265 -120q135 -138 135 -348q0 -171 -150 -294v-2q5 -31 124 -583q-10 -54 -52 -54q-55 0 -67 124l-102 458h-2q-130 -52 -190 -52v-3q3 -40 3 -70q0 -89 5 -405q-11 -55 -52 -55q-44 0 -52 57q-8 415 -8 739zM104 637 q135 23 229 91q106 81 106 213q0 224 -187 330q-72 29 -117 29h-5q-22 0 -26 -525v-138z" />
<glyph unicode="S" horiz-adv-x="624" d="M0 1040v8q0 225 138 330q49 26 106 26q165 0 232 -247l2 -13q-10 -55 -52 -55q-48 0 -67 102q-44 109 -122 109q-113 0 -133 -239v-21q9 -226 125 -286q135 -34 182 -88q130 -129 130 -341v-13q0 -133 -86 -239q-72 -73 -153 -73h-13q-173 0 -237 148q-18 63 -18 120v31 q0 53 39 70l15 3q52 -13 52 -50q-2 -26 -2 -41v-5q0 -126 70 -156q32 -16 88 -16q121 0 141 213v5q0 205 -133 297q-27 12 -127 44q-103 60 -148 192q-29 100 -29 185z" />
<glyph unicode="T" horiz-adv-x="624" d="M0 1352q0 46 62 52h422q62 -6 62 -52t-62 -52h-151v-1238q-6 -62 -52 -62t-52 62v1238h-167q-62 6 -62 52z" />
<glyph unicode="U" horiz-adv-x="627" d="M0 551v21q0 299 13 770q10 54 52 54q45 0 52 -60q-13 -475 -13 -767q0 -377 21 -377q47 -88 156 -88q95 0 130 81q23 57 23 338q0 426 -18 829q12 52 52 52q46 0 52 -62q18 -352 18 -830q0 -281 -26 -353q-67 -159 -229 -159h-7q-158 0 -247 148q-29 41 -29 403z" />
<glyph unicode="V" horiz-adv-x="618" d="M0 1339q12 52 52 52q54 0 62 -112q99 -727 154 -996l8 -39h5q47 265 151 1124q19 36 49 36q42 0 52 -55q-110 -969 -187 -1292q-27 -57 -65 -57q-71 0 -99 198q-31 117 -101 577q-24 142 -81 564z" />
<glyph unicode="W" horiz-adv-x="828" d="M0 52l21 1284q12 52 52 52q52 -12 52 -52l-16 -995h5q123 305 195 462q25 42 55 42q47 0 86 -120q15 -30 158 -387h3q3 138 13 1011q12 52 52 52q52 -12 52 -52l-16 -1287q-12 -52 -52 -52q-49 0 -83 125q-5 7 -210 525h-3q-24 -32 -166 -392q-13 -27 -102 -242 q-21 -26 -44 -26q-52 12 -52 52z" />
<glyph unicode="X" horiz-adv-x="647" d="M0 55q8 30 172 494q49 130 57 166l-177 627q12 52 52 52q52 0 73 -123l112 -382h5q158 456 174 489q21 26 44 26q42 0 52 -55q0 -6 -223 -642q174 -607 182 -642q-12 -52 -52 -52q-52 0 -71 114l-119 406h-3q-166 -471 -184 -512q-22 -20 -42 -21q-42 0 -52 55z" />
<glyph unicode="Y" horiz-adv-x="608" d="M0 1344q12 52 52 52q51 0 78 -122l148 -419h3q145 488 161 528q21 20 42 21q41 0 52 -55l-203 -694v-593q-6 -62 -52 -62t-52 62v606q-219 637 -229 676z" />
<glyph unicode="Z" d="M0 57q13 61 395 1204q11 31 11 39v3h-281q-63 5 -63 52q0 46 63 52h346q62 -6 62 -52v-3l-408 -1243v-2l260 7q52 -12 52 -52q0 -52 -83 -52q-15 -2 -302 -10q-43 0 -52 57z" />
<glyph unicode="[" horiz-adv-x="316" d="M0 1382q0 46 62 52h115q62 -6 62 -52t-62 -52h-73l5 -1326h47q62 -6 62 -52t-62 -52h-88q-63 6 -63 52z" />
<glyph unicode="\" horiz-adv-x="422" d="M0 1352q12 52 52 52q56 0 65 -120q231 -1194 237 -1232q-12 -52 -52 -52q-56 0 -65 120q-232 1194 -237 1232z" />
<glyph unicode="]" horiz-adv-x="328" d="M0 -48q0 46 62 52h73l-5 1326h-47q-62 6 -62 52t62 52h89q62 -6 62 -52l5 -1430q0 -46 -62 -52h-115q-62 6 -62 52z" />
<glyph unicode="^" d="M0 645q117 502 148 569q42 146 104 146q75 0 141 -232q80 -233 140 -478q-12 -52 -52 -52q-52 0 -73 125q-80 292 -151 478h-2q-44 -107 -159 -585q-21 -26 -44 -26q-42 0 -52 55z" />
<glyph unicode="_" horiz-adv-x="639" d="M0 52q0 46 62 52h409q62 -6 62 -52t-62 -52h-409q-62 6 -62 52z" />
<glyph unicode="`" horiz-adv-x="299" d="M0 1161q12 52 52 52q34 0 114 -109q34 -27 34 -52q0 -42 -54 -52q-35 0 -115 109q-31 27 -31 52z" />
<glyph unicode="a" horiz-adv-x="591" d="M0 699q0 51 146 117q60 26 98 26h11q118 0 166 -145q57 -233 57 -544v-91q-5 -62 -52 -62q-27 0 -52 36h-2q-32 -7 -89 -13h-39q-153 0 -213 136q-15 39 -15 96q0 274 283 387q23 8 26 8q-16 88 -75 88q-60 0 -182 -88l-16 -3q-52 12 -52 52zM120 250q0 -123 132 -123h24 q98 8 98 24q0 191 -28 395h-3q-223 -72 -223 -296z" />
<glyph unicode="b" horiz-adv-x="574" d="M0 1204q12 52 52 52q46 0 52 -63v-161q0 -67 3 -187h20q212 0 305 -247q36 -128 36 -237v-44q0 -133 -81 -226q-77 -78 -182 -78h-20q-55 0 -81 10q-31 -23 -47 -23q-52 12 -52 52zM107 666q0 -203 2 -539q33 -10 83 -10h6q122 0 156 125q6 20 10 83v29q0 235 -112 343 q-58 44 -132 44h-8q-5 -1 -5 -5v-70z" />
<glyph unicode="c" horiz-adv-x="574" d="M0 380v7q0 236 112 375q71 70 158 70h3q138 0 190 -195q-12 -52 -52 -52q-46 0 -68 88q-31 55 -75 55h-3q-46 0 -91 -52q-70 -119 -70 -294q0 -217 94 -273q10 -5 28 -5q99 0 135 68q16 50 16 111q20 37 49 37q47 0 52 -63v-15q0 -167 -156 -229q-51 -13 -93 -13h-13 q-117 0 -185 169q-31 91 -31 211z" />
<glyph unicode="d" horiz-adv-x="545" d="M0 322q7 376 226 492q16 13 89 31q-3 41 -11 359q12 52 52 52q46 0 52 -63l31 -1141q-12 -52 -52 -52q-10 0 -44 18q-49 -15 -104 -15h-8q-153 0 -215 182q-16 61 -16 137zM104 320q0 -213 135 -213q64 0 94 20l-16 609h-2q-55 0 -133 -96q-78 -125 -78 -320z" />
<glyph unicode="e" horiz-adv-x="584" d="M0 447v13q5 276 151 356q48 16 67 16h19q197 0 239 -205q2 -23 2 -39v-13q0 -56 -85 -84q-280 -139 -281 -143q0 -75 65 -195q20 -32 80 -49h16q56 0 94 117q20 26 44 26q41 0 52 -55q-14 -70 -60 -127q-58 -65 -127 -65h-13q-96 0 -175 99q-88 146 -88 348zM104 465h3 q132 63 267 133q0 74 -65 114q-39 16 -78 16h-2q-88 0 -117 -169q-8 -63 -8 -94z" />
<glyph unicode="f" horiz-adv-x="559" d="M0 720q0 57 114 57h24v3q0 292 88 400q63 58 115 58h7q104 0 180 -177q0 -1 2 -11q-12 -52 -52 -52q-41 0 -75 86q-37 50 -60 50q-47 0 -75 -104q-26 -126 -26 -245h2l185 11q52 -12 52 -52q0 -58 -114 -58q-9 0 -120 -5q-8 -2 -8 -5q0 -273 29 -621q-11 -55 -52 -55 q-57 0 -57 114q-24 302 -24 559h-2q-62 -5 -81 -5q-52 12 -52 52z" />
<glyph unicode="g" horiz-adv-x="582" d="M0 457v8q0 277 153 367q50 13 63 13h13q94 0 153 -45h5q26 32 50 32q41 0 52 -55q0 -640 -52 -887q-51 -140 -169 -140q-126 0 -219 70q-8 18 -10 31q12 52 52 52l122 -46q39 -3 52 -3q49 0 70 60q11 29 19 117q-55 -18 -81 -18h-3q-195 0 -257 299q-13 80 -13 145z M104 460q0 -210 94 -317q45 -26 67 -26h3q64 0 99 117q9 39 15 314q-4 64 -13 104q-12 38 -47 65q-36 24 -96 24q-82 0 -114 -169q-8 -58 -8 -112z" />
<glyph unicode="h" horiz-adv-x="584" d="M0 94q5 293 8 1136q12 52 52 52q46 0 52 -63v-15q0 -140 -3 -455h3q68 83 145 83h8q171 0 208 -359q5 -110 5 -184v-3q0 -265 -26 -265q-15 -18 -36 -18q-42 0 -52 54q10 138 10 234q0 346 -83 427q-12 10 -31 10q-103 0 -143 -328q-10 -38 -10 -208v-130q-6 -62 -52 -62 q-55 0 -55 94z" />
<glyph unicode="i" horiz-adv-x="205" d="M0 957q10 57 57 57q50 0 57 -62q-10 -58 -57 -58q-49 0 -57 63zM8 772q12 52 52 52q52 -12 52 -52l8 -720q-12 -52 -52 -52q-52 12 -52 52z" />
<glyph unicode="j" horiz-adv-x="463" d="M0 -113q12 52 52 52q49 0 60 -83q21 -52 60 -52q54 6 64 67q16 83 16 302q0 223 -28 593q12 52 52 52q47 0 54 -70q26 -360 26 -580q0 -379 -78 -432q-55 -36 -104 -36h-5q-129 0 -166 172q-3 13 -3 15zM195 958q10 58 57 58q50 0 57 -63q-10 -57 -57 -57q-49 0 -57 62z " />
<glyph unicode="k" horiz-adv-x="502" d="M0 52l13 1178q12 52 52 52q52 -12 52 -52l-8 -666h8q178 244 211 273q20 8 26 8q52 -12 52 -52q0 -27 -120 -172q-2 -7 -130 -174v-5q239 -359 244 -374l3 -13q-12 -52 -52 -52q-37 0 -94 101q-141 214 -148 218h-2v-2q0 -69 -3 -265q-10 -55 -52 -55q-52 12 -52 52z" />
<glyph unicode="l" horiz-adv-x="198" d="M0 62v1157q6 63 52 63t52 -63v-1157q-6 -62 -52 -62t-52 62z" />
<glyph unicode="m" horiz-adv-x="895" d="M0 86q0 129 3 200q-3 175 -3 369v94q6 62 52 62t52 -62v-8h3q69 91 150 91h8q97 0 161 -133q82 81 156 81h21q134 0 172 -289q13 -159 13 -228q-5 -226 -22 -251q-11 -10 -38 -12q-52 12 -52 52q5 42 8 211q0 223 -44 364q-21 41 -37 49h-10q-78 0 -130 -120 q15 -117 15 -267v-25q0 -220 -22 -245q-19 -16 -40 -16q-42 0 -52 54q10 138 10 234q0 346 -83 427q-12 10 -31 10q-103 0 -143 -328q-10 -38 -10 -208v-130q-6 -62 -52 -62q-55 0 -55 86z" />
<glyph unicode="n" horiz-adv-x="587" d="M0 86q0 129 3 200q-3 175 -3 369v94q6 62 52 62t52 -62v-8h3q69 91 150 91h8q171 0 208 -359q5 -110 5 -184v-3q-1 -222 -21 -262q-20 -21 -41 -21q-42 0 -52 54q10 138 10 234q0 346 -83 427q-12 10 -31 10q-103 0 -143 -328q-10 -38 -10 -208v-130q-6 -62 -52 -62 q-55 0 -55 86z" />
<glyph unicode="o" horiz-adv-x="584" d="M0 367v7q0 372 122 437q49 29 96 31q221 0 258 -317q2 -44 2 -86q0 -197 -72 -345q-67 -94 -156 -94h-11q-115 0 -203 135q-36 71 -36 232zM104 369q0 -169 42 -213q47 -52 104 -52q85 0 114 211q10 60 10 130q0 210 -88 278q-31 15 -68 15q-38 0 -70 -46 q-44 -97 -44 -323z" />
<glyph unicode="p" horiz-adv-x="572" d="M0 799q12 52 52 52q26 -5 26 -11q39 3 52 3q190 0 291 -224q47 -137 47 -299q0 -248 -185 -309q-33 -10 -72 -10h-11q-20 0 -93 13v-3q2 -37 2 -62v-227q-6 -62 -52 -62q-52 12 -52 52zM104 736q3 -329 3 -512v-96q10 -16 101 -23q156 0 156 221q-5 318 -156 395 q-36 18 -94 18z" />
<glyph unicode="q" horiz-adv-x="569" d="M0 523q0 248 185 310q33 10 72 10h11q19 0 106 -16q19 24 42 24q52 -12 52 -52q-3 -633 -5 -996h2q55 23 68 23q55 -10 55 -52t-91 -72q-62 -42 -86 -42q-46 0 -52 62v247l2 32h-13q-231 0 -319 278q-29 125 -29 244zM104 518q5 -318 156 -395q37 -18 91 -18q1 0 10 2 v143q0 155 3 468q-59 21 -104 21q-156 0 -156 -221z" />
<glyph unicode="r" horiz-adv-x="531" d="M0 790q12 52 52 52q46 0 52 -62v-13q85 36 143 36q126 0 174 -148q16 -55 16 -99q-11 -54 -52 -54q-55 0 -55 96q-21 101 -86 101q-66 0 -140 -62q3 -43 3 -65v-39q0 -178 2 -481q-12 -52 -52 -52q-52 12 -52 52z" />
<glyph unicode="s" horiz-adv-x="562" d="M0 611v8q0 153 148 216q41 7 63 7h13q113 0 182 -117q18 -34 18 -52q-11 -54 -52 -54t-68 78q-35 41 -91 41q-82 0 -104 -80q-5 -26 -5 -44q0 -118 120 -146q91 -10 166 -68q88 -87 88 -184v-8q0 -141 -148 -198q-34 -10 -78 -10q-172 0 -216 125q-7 28 -7 47v10 q0 53 39 70l15 3q52 -12 52 -52q-2 -22 -2 -37q0 -62 124 -62q80 0 110 62q7 29 7 42v5q0 108 -137 148q-103 0 -190 102q-47 71 -47 148z" />
<glyph unicode="t" horiz-adv-x="601" d="M0 749q12 52 52 52q19 0 88 -5v5q16 421 39 421q19 14 37 16q41 0 52 -55q-24 -309 -24 -390v-3q182 -5 216 -22q18 -12 21 -40q-12 -52 -52 -52q-15 0 -187 10q-3 -26 -3 -39v-41q0 -429 68 -484q22 -18 39 -18h2q33 0 89 112q15 19 41 21q52 -12 52 -52 q-32 -106 -117 -167q-32 -18 -59 -18h-19q-79 0 -145 112q-55 114 -55 486v62l3 32q-87 1 -122 26q-14 15 -16 31z" />
<glyph unicode="u" horiz-adv-x="579" d="M0 543v3q0 216 21 262q15 20 41 21q42 0 52 -54q-10 -138 -10 -234q0 -356 88 -432q17 -5 24 -5h2q104 0 143 328q11 38 11 208v130q6 62 52 62q54 0 54 -86q0 -129 -2 -200q2 -175 2 -369v-94q-5 -62 -52 -62q-46 0 -52 62v8h-2q-72 -91 -151 -91h-8q-170 0 -208 359 q-5 110 -5 184z" />
<glyph unicode="v" horiz-adv-x="579" d="M0 777q10 55 52 55q54 0 68 -120l106 -442h3q140 510 156 552q21 19 41 20q42 0 52 -54q-197 -732 -213 -767q-21 -20 -41 -21q-55 0 -71 130q-2 3 -153 647z" />
<glyph unicode="w" horiz-adv-x="892" d="M0 452q8 320 26 349q17 28 44 28q52 -12 52 -52q-18 -204 -18 -330q0 -277 70 -335l50 -8q82 0 111 172q11 55 11 85v76q6 62 52 62t52 -62v-34q0 -242 101 -291q28 -8 34 -8h10q72 0 89 159q5 40 5 83q0 203 -49 444q12 52 52 52q48 0 62 -88q39 -224 39 -416 q0 -266 -140 -328q-43 -10 -55 -10h-18q-79 0 -151 78q0 6 -29 42h-2q-72 -120 -177 -120q-137 0 -185 140q-36 119 -36 312z" />
<glyph unicode="x" horiz-adv-x="610" d="M0 52q0 22 172 320l36 73q-174 327 -174 345q12 52 52 52q42 0 80 -96q93 -178 104 -190q145 259 154 271q13 13 36 15q52 -12 52 -52q-4 -28 -184 -345q25 -55 189 -375l3 -13q-12 -52 -52 -52q-43 0 -88 112l-112 211q-7 0 -60 -102q-107 -195 -125 -216 q-11 -10 -31 -10q-52 12 -52 52z" />
<glyph unicode="y" horiz-adv-x="579" d="M0 543v3q0 265 26 265q16 18 36 18q42 0 52 -54q-10 -138 -10 -234q0 -356 88 -432q17 -5 24 -5h2q104 0 143 328q11 38 11 208v130q6 62 52 62q54 0 54 -86q0 -134 -2 -197q2 -183 2 -372v-102q0 -246 -179 -322q-10 -5 -49 -13q-52 12 -52 52q0 44 75 62 q101 46 101 229v8h-2q-72 -91 -151 -91h-8q-170 0 -208 359q-5 110 -5 184z" />
<glyph unicode="z" horiz-adv-x="591" d="M0 75q0 17 159 315q175 326 179 343l-18 3h-31q-86 0 -229 2q-52 12 -52 52q12 52 52 52l366 -5q52 -12 52 -52q-13 -47 -158 -309l-182 -351v-3q314 -15 314 -31q16 -18 19 -39q-12 -52 -52 -52q-393 22 -393 31q-26 21 -26 44z" />
<glyph unicode="{" horiz-adv-x="501" d="M0 644q0 33 60 65q18 23 18 44v8q0 29 -34 148q-31 162 -31 210q0 212 263 302q54 13 62 13q52 -12 52 -52q0 -50 -94 -62q-179 -64 -179 -201q21 -177 42 -244q23 -55 23 -107v-10q0 -64 -42 -114q58 -70 58 -117v-21l-39 -216q-8 -41 -8 -101v-32q0 -97 44 -135 q20 -18 68 -18q15 0 59 8q58 -9 58 -52q0 -53 -99 -60h-24q-141 0 -192 138q-18 76 -18 112v46q0 99 47 312v8q0 40 -81 94q-13 23 -13 34z" />
<glyph unicode="|" horiz-adv-x="202" d="M0 -38v1410q6 62 52 62t52 -62v-1410q-6 -62 -52 -62t-52 62z" />
<glyph unicode="}" horiz-adv-x="504" d="M0 -48q0 50 94 62q179 64 179 201q-21 177 -42 244q-23 55 -23 107v10q0 61 42 117q-58 64 -58 114v21l39 216q8 41 8 101v32q0 97 -44 135q-20 18 -68 18q-15 0 -59 -8q-58 9 -58 52q0 53 99 60h24q141 0 192 -138q18 -76 18 -112v-46q0 -99 -47 -312v-8q0 -40 81 -94 q13 -23 13 -34q0 -33 -60 -65q-18 -23 -18 -44v-8q0 -29 34 -148q31 -162 31 -210q0 -212 -263 -302q-54 -13 -62 -13q-52 12 -52 52z" />
<glyph unicode="~" horiz-adv-x="636" d="M0 668q0 67 73 111q39 19 67 19h16q102 0 174 -86q10 -8 24 -8q41 0 93 75q23 13 34 13q52 -12 52 -52q-21 -71 -101 -119q-40 -21 -71 -21h-10q-67 0 -120 65q-26 29 -80 29q-50 0 -50 -52q-19 -37 -49 -37q-46 0 -52 63z" />
<glyph unicode="&#xa1;" horiz-adv-x="199" d="M0 947q10 57 57 57q50 0 57 -62q-10 -58 -57 -58q-49 0 -57 63zM5 -340q0 210 3 1029q10 55 52 55q43 0 52 -57q0 -250 -3 -1032q-10 -55 -52 -55q-45 0 -52 60z" />
<glyph unicode="&#xa2;" horiz-adv-x="579" d="M0 381v8q0 260 133 395q19 15 67 39v60q6 62 52 62t52 -62v-50q0 -4 47 -18q78 -56 104 -145q8 -24 8 -32q-12 -52 -52 -52q-45 0 -73 99q-23 31 -36 31q-6 -539 -6 -598h3q32 9 60 50q18 48 18 117q20 36 49 36q47 0 52 -62v-16q0 -167 -156 -229q-28 -3 -28 -10v-42 q-6 -62 -52 -62t-52 62v39q0 5 -47 19q-143 95 -143 361zM104 384q0 -202 83 -268h5q0 90 6 582h-6q-88 -109 -88 -314z" />
<glyph unicode="&#xa3;" horiz-adv-x="615" d="M0 658q0 46 62 52h13v2q-26 181 -26 258v28q0 208 78 320q68 86 167 86h10q95 0 203 -73q13 -23 13 -34q0 -41 -55 -52q-10 0 -88 39q-44 16 -78 16h-5q-117 0 -135 -226q-6 -27 -6 -83v-13q0 -86 29 -271h18q92 0 242 -2q52 -12 52 -52q0 -42 -55 -52h-239 q16 -112 16 -149v-57q0 -88 -73 -281v-2q377 0 377 -21q16 -18 18 -39q-12 -52 -52 -52q-455 8 -455 18q-26 21 -26 44q0 15 37 81q70 174 70 260v42q0 61 -21 161h-29q-62 6 -62 52z" />
<glyph unicode="&#xa4;" horiz-adv-x="1104" d="M0 806v31q0 147 151 242q74 40 192 65q0 56 65 122q33 27 86 31h10q101 0 151 -127q0 -34 47 -34q166 -47 226 -135q78 -96 78 -219v-28q0 -46 -75 -408q-34 -176 -47 -206q-96 -70 -351 -70q-175 0 -369 65q-25 0 -52 172l-81 371q-20 34 -31 128zM104 814q4 -68 21 -68 q218 -42 385 -42q199 0 392 50v21q0 181 -184 249q-60 16 -68 16q-45 -76 -130 -76h-16q-79 0 -140 73h-3q-109 -9 -202 -78q-55 -57 -55 -127v-18zM148 632q83 -407 89 -411q154 -47 304 -47q260 10 260 47l83 421h-3q-184 -42 -369 -42h-13q-131 0 -351 34v-2zM263 499 q12 52 52 52q53 0 70 -125q2 0 31 -122q-10 -55 -52 -55q-52 0 -65 107q-3 0 -36 143zM447 1120q0 -52 65 -52h3q47 0 47 45q0 61 -60 80h-5q-36 0 -50 -60v-13zM484 301q10 227 39 227q7 6 28 10q52 -12 52 -52q-11 -226 -39 -226q-7 -7 -28 -11q-52 12 -52 52zM647 299 q58 231 68 242q18 15 39 18q42 0 52 -55q-58 -244 -70 -244q-18 -14 -37 -16q-41 0 -52 55z" />
<glyph unicode="&#xa5;" horiz-adv-x="621" d="M0 1344q12 52 52 52q51 0 78 -122l148 -419h3q145 488 161 528q21 20 42 21q41 0 52 -55l-203 -694v-86h2q43 0 156 3q52 -12 52 -52q0 -52 -83 -52q-37 -3 -125 -3h-2v-127q97 -3 119 -3q68 -8 68 -54q-13 -52 -49 -52q-25 2 -138 5v-172q-6 -62 -52 -62t-52 62v172 h-107q-62 6 -62 52t62 52h107v125q-84 -3 -112 -3q-57 9 -57 52q0 52 83 52q44 3 86 3v101q-219 637 -229 676z" />
<glyph unicode="&#xa6;" horiz-adv-x="205" d="M0 -48q0 39 5 572q12 52 52 52q52 -12 52 -52l-5 -572q-12 -52 -52 -52q-52 12 -52 52zM10 787v592q6 63 52 63q47 0 52 -63v-592q-5 -63 -52 -63q-46 0 -52 63z" />
<glyph unicode="&#xa7;" horiz-adv-x="606" d="M0 1107v10q0 141 109 218q45 29 102 29h10q121 0 187 -138q16 -27 16 -49q-11 -55 -52 -55q-37 0 -55 52q-29 86 -104 86h-2q-74 0 -99 -91q-8 -24 -8 -60q0 -145 130 -179q63 0 146 -65q98 -99 98 -216v-13q0 -122 -91 -187v-11q70 -36 107 -148q10 -46 10 -57v-52 q0 -67 -62 -153q-64 -68 -164 -68h-8q-172 0 -213 156q-2 22 -2 36v8q5 73 39 73q0 3 15 5q52 -12 52 -52q-2 -26 -2 -39q0 -83 119 -83q89 0 112 81q10 26 10 46v34q0 79 -78 135q-34 15 -122 24q-51 10 -112 65q-70 80 -70 195q0 135 107 216v2q-125 90 -125 245zM122 641 q0 -117 83 -117q29 -8 58 -8h20q59 0 84 73q7 23 7 52v3q0 88 -75 132q-35 6 -47 6q-74 0 -99 -34q-31 -51 -31 -107z" />
<glyph unicode="&#xa8;" horiz-adv-x="413" d="M0 1162q10 58 57 58q50 0 57 -63q-10 -57 -57 -57q-49 0 -57 62zM205 1162q11 58 58 58q49 0 57 -63q-11 -57 -57 -57q-50 0 -58 62z" />
<glyph unicode="&#xa9;" horiz-adv-x="1095" d="M0 601v41q0 169 78 377q111 238 291 304q63 19 102 19h26q212 0 379 -273q117 -238 117 -442v-39q0 -286 -169 -461q-134 -127 -335 -127q-321 0 -450 348q-39 139 -39 253zM104 608q0 -276 161 -429q94 -75 226 -75q295 0 377 317q21 84 21 174v24q0 211 -122 431 q-124 188 -278 188h-11q-162 0 -278 -208q-96 -192 -96 -396v-26zM218 653q0 274 193 361q62 21 117 21h5q62 -6 62 -52q0 -55 -98 -55q-71 0 -130 -80q-45 -75 -45 -201q0 -205 185 -205q23 0 81 10q54 -10 54 -52q0 -62 -138 -62q-217 0 -273 203q-13 35 -13 112z" />
<glyph unicode="&#xaa;" horiz-adv-x="585" d="M0 1181q0 56 174 114q54 13 68 13h5q163 0 195 -213q36 -178 36 -375v-78q-5 -62 -52 -62q-24 0 -49 31h-3q-59 -10 -83 -10h-36q-177 0 -229 127q-10 35 -10 70v6q0 218 241 319q18 8 63 21v5q-13 55 -70 55q-65 0 -182 -73l-16 -2q-52 12 -52 52zM120 796 q0 -91 137 -91h26q82 6 91 15q0 133 -26 320q-5 0 -5 3q-223 -61 -223 -247z" />
<glyph unicode="&#xab;" horiz-adv-x="510" d="M0 561q0 20 182 398q21 20 42 21q41 0 52 -55q-5 -19 -167 -366v-3q109 -277 109 -294q-12 -52 -52 -52q-49 0 -85 133q-71 174 -81 218zM190 559q109 367 127 392q19 16 39 19q42 0 52 -55l-109 -354v-2q101 -268 112 -307q-12 -52 -52 -52q-49 0 -81 120 q-88 222 -88 239z" />
<glyph unicode="&#xac;" horiz-adv-x="636" d="M0 737q0 47 68 54h332q110 0 110 -15q20 -15 20 -45q3 -144 3 -176q-10 -55 -52 -55q-46 0 -52 62v8q0 38 -3 117h-348q-11 0 -29 -2q-36 0 -49 52z" />
<glyph unicode="&#xad;" horiz-adv-x="618" d="M0 592q0 46 62 52h409q62 -6 62 -52t-62 -52h-409q-62 6 -62 52z" />
<glyph unicode="&#xae;" horiz-adv-x="1104" d="M0 601v41q0 169 78 377q111 238 291 304q63 19 102 19h26q212 0 379 -273q117 -238 117 -442v-39q0 -286 -169 -461q-134 -127 -335 -127q-321 0 -450 348q-39 139 -39 253zM104 608q0 -276 161 -429q94 -75 226 -75q295 0 377 317q21 84 21 174v24q0 211 -122 431 q-124 188 -278 188h-11q-162 0 -278 -208q-96 -192 -96 -396v-26zM281 803q0 150 28 172q46 44 143 44h19q95 0 169 -78q36 -46 36 -114q0 -155 -192 -232v-2q0 -6 169 -154q8 -18 10 -31q-12 -52 -52 -52q-29 0 -143 112q-72 62 -81 62q3 -15 6 -130q-11 -54 -52 -54 q-52 0 -52 83q-5 0 -8 374zM385 684q1 -5 5 -5q63 7 135 54q47 38 47 96q0 61 -68 81q-29 5 -41 5h-5q-68 0 -68 -18q-5 -50 -5 -135v-78z" />
<glyph unicode="&#xaf;" horiz-adv-x="639" d="M0 1152q0 43 57 52q26 0 421 3q55 -11 55 -52q0 -44 -57 -52q-26 0 -421 -3q-55 10 -55 52z" />
<glyph unicode="&#xb0;" horiz-adv-x="477" d="M1 1119v2q0 120 137 164q26 5 52 5h3q141 0 179 -138q3 -26 3 -41q0 -115 -120 -182q-48 -13 -70 -13h-8q-103 0 -161 122q-15 35 -15 81zM105 1116q0 -81 78 -96q76 0 88 96q0 70 -86 70q-69 0 -80 -62v-8z" />
<glyph unicode="&#xb1;" horiz-adv-x="671" d="M0 252q0 46 62 52h409q62 -6 62 -52t-62 -52h-409q-62 6 -62 52zM0 608q0 46 62 52h154v151q6 62 52 62t52 -62v-151h151q62 -6 62 -52t-62 -52h-151v-154q-6 -62 -52 -62t-52 62v154h-154q-62 6 -62 52z" />
<glyph unicode="&#xb2;" horiz-adv-x="585" d="M0 1221q0 72 247 107h10q143 0 190 -112q16 -43 16 -65v-23q0 -140 -229 -416v-5q57 2 192 5q52 -12 52 -52q0 -52 -83 -52q-37 -3 -286 -8q-52 12 -52 52q0 26 81 107q181 209 216 338q0 1 5 39v10q-12 75 -76 75q0 3 -28 3q-66 0 -198 -55h-5q-52 12 -52 52z" />
<glyph unicode="&#xb3;" horiz-adv-x="579" d="M0 1207q0 71 260 101h10q141 0 180 -109q8 -40 8 -52q0 -106 -123 -190v-3q143 -87 143 -205v-16q0 -90 -114 -135q-53 -18 -133 -18q-182 0 -182 49l-2 13q0 42 54 52q65 -10 133 -10q140 0 140 60q0 99 -163 145q-107 0 -107 58q0 42 55 52q195 54 195 148q0 57 -86 57 q-64 0 -216 -49q-52 12 -52 52z" />
<glyph unicode="&#xb4;" horiz-adv-x="305" d="M0 1152q0 23 65 88q53 73 83 73q52 -12 52 -52q0 -37 -125 -156q-19 -5 -23 -5q-52 12 -52 52z" />
<glyph unicode="&#xb5;" horiz-adv-x="600" d="M0 -148l23 829q0 141 39 141q14 5 19 5q52 -12 52 -52q-8 -281 -11 -307q19 -366 112 -366h3q103 0 143 327q10 38 10 208v130q6 63 52 63q55 0 55 -86q0 -129 -3 -200q3 -175 3 -370v-93q-6 -63 -52 -63q-47 0 -52 63v8h-3q-72 -91 -151 -91h-8q-61 0 -114 57h-8 q0 -239 -21 -239q-18 -14 -36 -16q-52 12 -52 52z" />
<glyph unicode="&#xb6;" horiz-adv-x="799" d="M0 936q0 303 234 439q83 47 179 47h6q114 0 114 -148q5 -113 5 -234v-70q-14 -926 -31 -926q-21 -26 -44 -26q-52 12 -52 52q10 251 15 486q-64 -7 -75 -7h-52q-132 0 -224 111q-75 95 -75 276zM590 52l5 1323q12 52 52 52q52 -12 52 -52l-5 -1323q-12 -52 -52 -52 q-52 12 -52 52z" />
<glyph unicode="&#xb7;" horiz-adv-x="208" d="M0 712q10 58 57 58q50 0 57 -63q-10 -57 -57 -57q-49 0 -57 62z" />
<glyph unicode="&#xb8;" horiz-adv-x="377" d="M0 -245q12 52 52 52q33 -3 39 -3q70 0 86 23v11q-4 23 -24 23h-13q-13 0 -44 -8q-46 0 -52 63q-2 13 -8 112q12 52 52 52q55 0 55 -99v-3l3 -13h15q70 0 112 -80q8 -28 8 -42v-16q0 -110 -169 -127h-31q-76 5 -76 39q-3 0 -5 16z" />
<glyph unicode="&#xb9;" horiz-adv-x="308" d="M0 1190q0 35 107 109q31 29 52 29q52 -12 52 -52l-8 -624q-12 -52 -52 -52q-52 12 -52 52q5 372 5 510h-5q-28 -23 -47 -24q-52 12 -52 52z" />
<glyph unicode="&#xba;" horiz-adv-x="582" d="M0 917v13q0 311 122 369q45 29 107 29q174 0 234 -205q15 -63 15 -143q0 -151 -65 -286q-67 -94 -161 -94h-18q-105 0 -198 117q-36 65 -36 200zM104 920q0 -163 60 -187q39 -29 78 -29h5q99 0 122 205q5 29 5 76q0 208 -119 236q-22 3 -34 3q-83 0 -104 -122 q-13 -119 -13 -182z" />
<glyph unicode="&#xbb;" horiz-adv-x="501" d="M0 873q12 52 52 52q47 0 68 -91q98 -280 98 -296q-91 -322 -104 -322q-18 -14 -36 -16q-42 0 -52 55q10 41 86 283q-112 321 -112 335zM161 873q12 52 52 52q51 0 81 -130q75 -203 88 -260q-92 -317 -109 -317q-18 -8 -31 -10q-42 0 -52 54l83 271v2q-107 315 -112 338z " />
<glyph unicode="&#xbc;" horiz-adv-x="1001" d="M0 52q0 22 205 361q536 924 562 957q23 13 34 13q52 -12 52 -52q0 -22 -206 -361q-536 -924 -561 -957q-23 -13 -34 -13q-52 12 -52 52zM0 1190q0 35 107 109q31 29 52 29q52 -12 52 -52l-8 -624q-12 -52 -52 -52q-52 12 -52 52q5 372 5 510h-5q-28 -23 -47 -24 q-52 12 -52 52zM400 239q0 23 161 263q70 119 138 210q18 14 36 16q52 0 52 -83q3 -18 3 -94v-257h26q62 -6 62 -52t-62 -52h-23v-128q-6 -62 -52 -62q-47 0 -52 62v128q-70 -3 -110 -3h-117q-62 6 -62 52zM551 291h13q40 0 122 3v208h-3l-132 -203v-8z" />
<glyph unicode="&#xbd;" horiz-adv-x="1140" d="M0 52q0 22 205 361q536 924 562 957q23 13 34 13q52 -12 52 -52q0 -22 -206 -361q-536 -924 -561 -957q-23 -13 -34 -13q-52 12 -52 52zM0 1190q0 35 107 109q31 29 52 29q52 -12 52 -52l-8 -624q-12 -52 -52 -52q-52 12 -52 52q5 372 5 510h-5q-28 -23 -47 -24 q-52 12 -52 52zM562 621q0 71 247 107h10q142 0 190 -112q15 -43 15 -65v-24q0 -140 -228 -416v-5q56 3 192 5q52 -12 52 -52q0 -52 -83 -52q-37 -2 -286 -7q-52 12 -52 52q0 25 80 106q181 210 216 338q0 2 5 39v11q-11 75 -75 75q0 3 -29 3q-66 0 -197 -55h-5 q-52 12 -52 52z" />
<glyph unicode="&#xbe;" horiz-adv-x="1101" d="M6 1318q0 71 260 101h11q140 0 179 -109q8 -39 8 -52q0 -106 -122 -190v-2q143 -88 143 -206v-15q0 -91 -115 -136q-52 -18 -132 -18q-182 0 -182 50l-3 13q0 41 55 52q64 -11 132 -11q141 0 141 60q0 99 -164 146q-107 0 -107 57q0 42 55 52q195 54 195 148q0 57 -86 57 q-64 0 -216 -49q-52 12 -52 52zM100 52q0 22 205 362q536 923 562 957q22 13 33 13q52 -13 52 -52q0 -23 -205 -362q-536 -923 -562 -957q-22 -13 -33 -13q-52 12 -52 52zM500 240q0 23 161 262q70 119 138 211q18 14 36 15q52 0 52 -83q3 -18 3 -93v-258h26q62 -6 62 -52 t-62 -52h-24v-127q-6 -63 -52 -63t-52 63v127q-69 -2 -109 -2h-117q-62 5 -62 52zM650 292h13q40 0 123 2v208h-3l-133 -203v-7z" />
<glyph unicode="&#xbf;" horiz-adv-x="618" d="M0 0q0 164 104 297q111 105 198 122q87 23 127 23v234q6 63 52 63t52 -63v-275q0 -63 -62 -63h-32q-132 0 -247 -98q-88 -101 -88 -247v-8q0 -183 192 -252q49 -19 201 -34q28 -24 28 -47q0 -46 -62 -52q-129 0 -273 65q-58 32 -115 96q-75 103 -75 216v23zM419 949 q10 58 57 58q49 0 57 -63q-10 -57 -57 -57q-50 0 -57 62z" />
<glyph unicode="&#xc0;" d="M0 55q110 969 187 1292q28 57 65 57q71 0 99 -198q31 -117 101 -577q24 -142 81 -564q-12 -52 -52 -52q-54 0 -62 112q-47 368 -65 450h-185q-13 -90 -68 -539q-19 -36 -49 -36q-42 0 -52 55zM133 1591q12 52 52 52q34 0 114 -109q34 -27 34 -52q0 -42 -54 -52 q-35 0 -115 109q-31 27 -31 52zM182 686q3 -5 3 -7h153v2q-23 177 -81 479h-5q-39 -240 -70 -474z" />
<glyph unicode="&#xc1;" d="M0 55q110 969 187 1292q28 57 65 57q71 0 99 -198q31 -117 101 -577q24 -142 81 -564q-12 -52 -52 -52q-54 0 -62 112q-47 368 -65 450h-185q-13 -90 -68 -539q-19 -36 -49 -36q-42 0 -52 55zM182 686q3 -5 3 -7h153v2q-23 177 -81 479h-5q-39 -240 -70 -474zM200 1492 q0 23 65 88q53 73 83 73q52 -12 52 -52q0 -37 -125 -156q-19 -5 -23 -5q-52 12 -52 52z" />
<glyph unicode="&#xc2;" d="M0 55q110 969 187 1292q28 57 65 57q71 0 99 -198q31 -117 101 -577q24 -142 81 -564q-12 -52 -52 -52q-54 0 -62 112q-47 368 -65 450h-185q-13 -90 -68 -539q-19 -36 -49 -36q-42 0 -52 55zM107 1485q0 30 96 109q49 50 73 50q34 0 101 -97q50 -50 50 -75 q-12 -52 -52 -52q-33 0 -96 88q-7 6 -8 6h-3q-85 -81 -109 -81q-52 12 -52 52zM182 686q3 -5 3 -7h153v2q-23 177 -81 479h-5q-39 -240 -70 -474z" />
<glyph unicode="&#xc3;" d="M0 55q110 969 187 1292q28 57 65 57q71 0 99 -198q31 -117 101 -577q24 -142 81 -564q-12 -52 -52 -52q-54 0 -62 112q-47 368 -65 450h-185q-13 -90 -68 -539q-19 -36 -49 -36q-42 0 -52 55zM51 1515q38 137 135 137h8q73 0 140 -83h21q26 0 29 31q0 26 47 37 q46 0 52 -63q0 -89 -123 -109h-26q-60 0 -106 70q-24 13 -37 13q-24 0 -44 -62q-21 -26 -44 -26q-42 0 -52 55zM182 686q3 -5 3 -7h153v2q-23 177 -81 479h-5q-39 -240 -70 -474z" />
<glyph unicode="&#xc4;" d="M0 55q110 969 187 1292q28 57 65 57q71 0 99 -198q31 -117 101 -577q24 -142 81 -564q-12 -52 -52 -52q-54 0 -62 112q-47 368 -65 450h-185q-13 -90 -68 -539q-19 -36 -49 -36q-42 0 -52 55zM107 1522q10 58 57 58q50 0 57 -63q-10 -57 -57 -57q-49 0 -57 62zM182 686 q3 -5 3 -7h153v2q-23 177 -81 479h-5q-39 -240 -70 -474zM312 1522q11 58 58 58q49 0 57 -63q-11 -57 -57 -57q-50 0 -58 62z" />
<glyph unicode="&#xc5;" d="M0 55q110 969 187 1292q28 57 65 57q71 0 99 -198q31 -117 101 -577q24 -142 81 -564q-12 -52 -52 -52q-54 0 -62 112q-47 368 -65 450h-185q-13 -90 -68 -539q-19 -36 -49 -36q-42 0 -52 55zM120 1548v2q0 117 140 138h19q94 0 132 -109q3 -18 3 -29v-2 q0 -117 -141 -138h-18q-94 0 -132 109q-3 18 -3 29zM182 686q3 -5 3 -7h153v2q-23 177 -81 479h-5q-39 -240 -70 -474zM224 1545q7 -31 36 -31h8q42 0 42 39q-7 31 -37 31h-7q-42 0 -42 -39z" />
<glyph unicode="&#xc6;" horiz-adv-x="917" d="M0 73q250 995 356 1263q28 65 70 65q23 -5 32 -5q50 16 119 16q221 -6 221 -37q7 -7 11 -28q-12 -52 -52 -52q-46 5 -177 13q-19 -3 -52 -3l-13 -2q-7 -162 -11 -536q258 0 258 -18q16 -19 18 -39q-12 -52 -52 -52q-156 2 -224 5q0 -4 -2 -36l-11 -523q242 5 266 5 q54 -10 54 -52q0 -41 -54 -52q-212 -5 -323 -5q-57 9 -57 52l13 520h-153q-84 -300 -138 -525q-24 -29 -47 -29q-42 0 -52 55zM265 676h128q7 268 7 390v75q-13 -13 -114 -382z" />
<glyph unicode="&#xc7;" horiz-adv-x="625" d="M0 663q0 341 91 585q64 156 187 156h11q151 0 200 -174q10 -49 10 -91v-5q-6 -63 -52 -63q-54 0 -54 99q-16 127 -91 127q0 3 -21 3q-61 0 -89 -83q-88 -211 -88 -559q0 -380 107 -531q25 -23 57 -23q104 0 138 65q23 52 23 127q0 25 -8 71q11 54 52 54q60 0 60 -127 q0 -247 -200 -289q-2 0 -5 -1q1 -11 1 -23v-3l3 -13h15q70 0 112 -80q8 -28 8 -42v-16q0 -110 -169 -127h-31q-76 5 -76 39q-3 0 -5 16q12 52 52 52q33 -3 39 -3q70 0 86 23v11q-3 23 -23 23h-13q-14 0 -45 -8q-46 0 -52 63q-2 11 -6 88q-154 34 -206 378q-18 104 -18 281z " />
<glyph unicode="&#xc8;" horiz-adv-x="611" d="M0 380q0 469 52 907q0 55 73 91q66 26 158 26h6q197 0 197 -36q4 0 8 -24q0 -45 -60 -52q-64 8 -148 8q-133 0 -133 -39q-39 -373 -39 -504h3l23 2q59 0 255 5q52 -12 52 -52q0 -46 -62 -52l-276 -7q0 -10 -2 -24q-3 -162 -3 -249q5 -273 42 -273q22 -3 33 -3 q101 0 289 49q52 -12 52 -52q0 -52 -120 -70q-124 -31 -218 -31h-13q-85 0 -122 52q-41 45 -47 328zM127 1601q12 52 52 52q34 0 114 -109q34 -27 34 -52q0 -42 -54 -52q-35 0 -115 109q-31 27 -31 52z" />
<glyph unicode="&#xc9;" horiz-adv-x="611" d="M0 380q0 469 52 907q0 55 73 91q66 26 158 26h6q197 0 197 -36q4 0 8 -24q0 -45 -60 -52q-64 8 -148 8q-133 0 -133 -39q-39 -373 -39 -504h3l23 2q59 0 255 5q52 -12 52 -52q0 -46 -62 -52l-276 -7q0 -10 -2 -24q-3 -162 -3 -249q5 -273 42 -273q22 -3 33 -3 q101 0 289 49q52 -12 52 -52q0 -52 -120 -70q-124 -31 -218 -31h-13q-85 0 -122 52q-41 45 -47 328zM193 1492q0 23 65 88q53 73 83 73q52 -12 52 -52q0 -37 -125 -156q-19 -5 -23 -5q-52 12 -52 52z" />
<glyph unicode="&#xca;" horiz-adv-x="611" d="M0 380q0 469 52 907q0 55 73 91q66 26 158 26h6q197 0 197 -36q4 0 8 -24q0 -45 -60 -52q-64 8 -148 8q-133 0 -133 -39q-39 -373 -39 -504h3l23 2q59 0 255 5q52 -12 52 -52q0 -46 -62 -52l-276 -7q0 -10 -2 -24q-3 -162 -3 -249q5 -273 42 -273q22 -3 33 -3 q101 0 289 49q52 -12 52 -52q0 -52 -120 -70q-124 -31 -218 -31h-13q-85 0 -122 52q-41 45 -47 328zM100 1515q0 30 96 109q49 50 73 50q34 0 101 -97q50 -50 50 -75q-12 -52 -52 -52q-33 0 -96 88q-7 6 -8 6h-3q-85 -81 -109 -81q-52 12 -52 52z" />
<glyph unicode="&#xcb;" horiz-adv-x="611" d="M0 380q0 469 52 907q0 55 73 91q66 26 158 26h6q197 0 197 -36q4 0 8 -24q0 -45 -60 -52q-64 8 -148 8q-133 0 -133 -39q-39 -373 -39 -504h3l23 2q59 0 255 5q52 -12 52 -52q0 -46 -62 -52l-276 -7q0 -10 -2 -24q-3 -162 -3 -249q5 -273 42 -273q22 -3 33 -3 q101 0 289 49q52 -12 52 -52q0 -52 -120 -70q-124 -31 -218 -31h-13q-85 0 -122 52q-41 45 -47 328zM100 1522q10 58 57 58q50 0 57 -63q-10 -57 -57 -57q-49 0 -57 62zM305 1522q11 58 58 58q49 0 57 -63q-11 -57 -57 -57q-50 0 -58 62z" />
<glyph unicode="&#xcc;" horiz-adv-x="210" d="M-80 1611q12 52 52 52q34 0 114 -109q34 -27 34 -52q0 -42 -54 -52q-35 0 -115 109q-31 27 -31 52zM0 1349q10 55 52 55q43 0 52 -57q3 -982 3 -1292q-11 -55 -52 -55q-44 0 -52 57q-3 1000 -3 1292z" />
<glyph unicode="&#xcd;" horiz-adv-x="210" d="M-13 1512q0 23 65 88q53 73 83 73q52 -12 52 -52q0 -37 -125 -156q-19 -5 -23 -5q-52 12 -52 52zM0 1349q10 55 52 55q43 0 52 -57q3 -982 3 -1292q-11 -55 -52 -55q-44 0 -52 57q-3 1000 -3 1292z" />
<glyph unicode="&#xce;" horiz-adv-x="210" d="M-107 1485q0 30 96 109q49 50 73 50q34 0 101 -97q50 -50 50 -75q-12 -52 -52 -52q-33 0 -96 88q-7 6 -8 6h-3q-85 -81 -109 -81q-52 12 -52 52zM0 1349q10 55 52 55q43 0 52 -57q3 -982 3 -1292q-11 -55 -52 -55q-44 0 -52 57q-3 1000 -3 1292z" />
<glyph unicode="&#xcf;" horiz-adv-x="210" d="M-107 1522q10 58 57 58q50 0 57 -63q-10 -57 -57 -57q-49 0 -57 62zM0 1349q10 55 52 55q43 0 52 -57q3 -982 3 -1292q-11 -55 -52 -55q-44 0 -52 57q-3 1000 -3 1292zM98 1522q11 58 58 58q49 0 57 -63q-11 -57 -57 -57q-50 0 -58 62z" />
<glyph unicode="&#xd0;" horiz-adv-x="739" d="M0 705q0 46 62 52h34v135q0 377 29 463q23 49 70 49h18q75 0 174 -65q242 -183 242 -718v-28q0 -179 -62 -359q-108 -234 -299 -234h-11q-122 13 -122 81q-13 0 -31 421l-5 151h-37q-62 5 -62 52zM200 759q56 3 83 3h8q63 -6 63 -52q0 -52 -84 -52q-49 -3 -67 -3 q2 -30 2 -44v-10q14 -494 37 -494l15 -3h3q184 0 244 289q21 123 21 208v13q0 516 -218 655q-55 28 -89 28q-18 -108 -18 -413v-125z" />
<glyph unicode="&#xd1;" horiz-adv-x="613" d="M0 1352q12 52 52 52q52 0 83 -140l286 -856h3q-3 115 -16 934q12 52 52 52q52 -12 52 -52l21 -1285q-12 -52 -52 -52q-52 0 -83 141l-289 863h-2l2 -83q0 -125 8 -874q-12 -52 -52 -52q-52 12 -52 52zM41 1505q38 137 135 137h8q73 0 140 -83h21q26 0 29 31q0 26 47 37 q46 0 52 -63q0 -89 -123 -109h-26q-60 0 -106 70q-24 13 -37 13q-24 0 -44 -62q-21 -26 -44 -26q-42 0 -52 55z" />
<glyph unicode="&#xd2;" horiz-adv-x="630" d="M0 723v15q0 452 70 557q76 109 203 109h3q54 0 124 -44q56 -37 81 -120q34 -121 49 -348q7 0 13 -346q0 -380 -72 -455q-79 -91 -188 -91h-13q-130 0 -213 117q-57 99 -57 606zM104 731q0 -324 31 -533q33 -94 143 -94h3q117 0 140 138q18 147 18 309q0 383 -54 653 q-31 96 -117 96q-116 0 -141 -159q-23 -163 -23 -410zM138 1611q12 52 52 52q34 0 114 -109q34 -27 34 -52q0 -42 -54 -52q-35 0 -115 109q-31 27 -31 52z" />
<glyph unicode="&#xd3;" horiz-adv-x="630" d="M0 723v15q0 452 70 557q76 109 203 109h3q54 0 124 -44q56 -37 81 -120q34 -121 49 -348q7 0 13 -346q0 -380 -72 -455q-79 -91 -188 -91h-13q-130 0 -213 117q-57 99 -57 606zM104 731q0 -324 31 -533q33 -94 143 -94h3q117 0 140 138q18 147 18 309q0 383 -54 653 q-31 96 -117 96q-116 0 -141 -159q-23 -163 -23 -410zM205 1502q0 23 65 88q53 73 83 73q52 -12 52 -52q0 -37 -125 -156q-19 -5 -23 -5q-52 12 -52 52z" />
<glyph unicode="&#xd4;" horiz-adv-x="630" d="M0 723v15q0 452 70 557q76 109 203 109h3q54 0 124 -44q56 -37 81 -120q34 -121 49 -348q7 0 13 -346q0 -380 -72 -455q-79 -91 -188 -91h-13q-130 0 -213 117q-57 99 -57 606zM104 731q0 -324 31 -533q33 -94 143 -94h3q117 0 140 138q18 147 18 309q0 383 -54 653 q-31 96 -117 96q-116 0 -141 -159q-23 -163 -23 -410zM112 1495q0 30 96 109q49 50 73 50q34 0 101 -97q50 -50 50 -75q-12 -52 -52 -52q-33 0 -96 88q-7 6 -8 6h-3q-85 -81 -109 -81q-52 12 -52 52z" />
<glyph unicode="&#xd5;" horiz-adv-x="630" d="M0 723v15q0 452 70 557q76 109 203 109h3q54 0 124 -44q56 -37 81 -120q34 -121 49 -348q7 0 13 -346q0 -380 -72 -455q-79 -91 -188 -91h-13q-130 0 -213 117q-57 99 -57 606zM56 1495q38 137 135 137h8q73 0 140 -83h21q26 0 29 31q0 26 47 37q46 0 52 -63 q0 -89 -123 -109h-26q-60 0 -106 70q-24 13 -37 13q-24 0 -44 -62q-21 -26 -44 -26q-42 0 -52 55zM104 731q0 -324 31 -533q33 -94 143 -94h3q117 0 140 138q18 147 18 309q0 383 -54 653q-31 96 -117 96q-116 0 -141 -159q-23 -163 -23 -410z" />
<glyph unicode="&#xd6;" horiz-adv-x="630" d="M0 723v15q0 452 70 557q76 109 203 109h3q54 0 124 -44q56 -37 81 -120q34 -121 49 -348q7 0 13 -346q0 -380 -72 -455q-79 -91 -188 -91h-13q-130 0 -213 117q-57 99 -57 606zM104 731q0 -324 31 -533q33 -94 143 -94h3q117 0 140 138q18 147 18 309q0 383 -54 653 q-31 96 -117 96q-116 0 -141 -159q-23 -163 -23 -410zM112 1532q10 58 57 58q50 0 57 -63q-10 -57 -57 -57q-49 0 -57 62zM317 1532q11 58 58 58q49 0 57 -63q-11 -57 -57 -57q-50 0 -58 62z" />
<glyph unicode="&#xd7;" horiz-adv-x="612" d="M0 452q0 29 104 127q58 64 88 102q-44 51 -184 203q-8 20 -8 26q12 52 52 52q31 0 109 -97q101 -106 104 -106q4 0 177 182q7 6 29 10q52 -12 52 -52q0 -28 -97 -119l-88 -99q0 -4 177 -195q6 -7 10 -29q-12 -52 -52 -52q-31 0 -114 102l-91 96q-5 0 -190 -195 q-21 -8 -26 -8q-52 12 -52 52z" />
<glyph unicode="&#xd8;" horiz-adv-x="652" d="M0 45l36 124q-36 199 -36 559v16q0 452 70 556q76 110 203 110h3q64 0 137 -55h3l26 55q18 15 39 18q42 0 52 -55l-44 -151q54 -277 54 -670q0 -380 -72 -455q-79 -91 -188 -91h-13q-77 0 -150 49h-6l-23 -47q-18 -16 -39 -18q-42 0 -52 55zM104 736q0 -197 10 -317 q7 0 110 328q153 472 153 481q-30 78 -109 78q-116 0 -141 -159q-23 -163 -23 -411zM151 169q43 -59 127 -59h3q117 0 140 137q18 147 18 310q0 259 -23 437h-3q-254 -783 -262 -825z" />
<glyph unicode="&#xd9;" horiz-adv-x="627" d="M0 551v21q0 299 13 770q10 54 52 54q45 0 52 -60q-13 -475 -13 -767q0 -377 21 -377q47 -88 156 -88q95 0 130 81q23 57 23 338q0 426 -18 829q12 52 52 52q46 0 52 -62q18 -352 18 -830q0 -281 -26 -353q-67 -159 -229 -159h-7q-158 0 -247 148q-29 41 -29 403z M136 1611q12 52 52 52q34 0 114 -109q34 -27 34 -52q0 -42 -54 -52q-35 0 -115 109q-31 27 -31 52z" />
<glyph unicode="&#xda;" horiz-adv-x="627" d="M0 551v21q0 299 13 770q10 54 52 54q45 0 52 -60q-13 -475 -13 -767q0 -377 21 -377q47 -88 156 -88q95 0 130 81q23 57 23 338q0 426 -18 829q12 52 52 52q46 0 52 -62q18 -352 18 -830q0 -281 -26 -353q-67 -159 -229 -159h-7q-158 0 -247 148q-29 41 -29 403z M189 1501q0 23 65 88q53 73 83 73q52 -12 52 -52q0 -37 -125 -156q-19 -5 -23 -5q-52 12 -52 52z" />
<glyph unicode="&#xdb;" horiz-adv-x="627" d="M0 551v21q0 299 13 770q10 54 52 54q45 0 52 -60q-13 -475 -13 -767q0 -377 21 -377q47 -88 156 -88q95 0 130 81q23 57 23 338q0 426 -18 829q12 52 52 52q46 0 52 -62q18 -352 18 -830q0 -281 -26 -353q-67 -159 -229 -159h-7q-158 0 -247 148q-29 41 -29 403z M109 1505q0 30 96 109q49 50 73 50q34 0 101 -97q50 -50 50 -75q-12 -52 -52 -52q-33 0 -96 88q-7 6 -8 6h-3q-85 -81 -109 -81q-52 12 -52 52z" />
<glyph unicode="&#xdc;" horiz-adv-x="627" d="M0 551v21q0 299 13 770q10 54 52 54q45 0 52 -60q-13 -475 -13 -767q0 -377 21 -377q47 -88 156 -88q95 0 130 81q23 57 23 338q0 426 -18 829q12 52 52 52q46 0 52 -62q18 -352 18 -830q0 -281 -26 -353q-67 -159 -229 -159h-7q-158 0 -247 148q-29 41 -29 403z M109 1532q10 58 57 58q50 0 57 -63q-10 -57 -57 -57q-49 0 -57 62zM314 1532q11 58 58 58q49 0 57 -63q-11 -57 -57 -57q-50 0 -58 62z" />
<glyph unicode="&#xdd;" horiz-adv-x="608" d="M0 1344q12 52 52 52q51 0 78 -122l148 -419h3q145 488 161 528q21 20 42 21q41 0 52 -55l-203 -694v-593q-6 -62 -52 -62t-52 62v606q-219 637 -229 676zM201 1512q0 23 65 88q53 73 83 73q52 -12 52 -52q0 -37 -125 -156q-19 -5 -23 -5q-52 12 -52 52z" />
<glyph unicode="&#xde;" horiz-adv-x="624" d="M0 62v1280q6 62 52 62t52 -62v-201q39 3 52 3q283 0 361 -247q16 -83 16 -109v-55q0 -126 -78 -257q-66 -91 -140 -135q-90 -54 -211 -78v-201q-6 -62 -52 -62t-52 62zM104 372h5q155 36 229 119q91 115 91 250v39q0 143 -99 216q-69 44 -177 44q-15 0 -49 -5v-663z" />
<glyph unicode="&#xdf;" horiz-adv-x="609" d="M0 49q15 1137 29 1137q26 218 174 218h2q143 0 245 -187q21 -69 21 -91v-37q0 -138 -159 -309q-21 -33 -21 -49v-8q0 -58 148 -164q94 -80 94 -221q0 -160 -244 -278q-50 -21 -65 -21q-55 10 -55 52q0 43 86 68q174 84 174 182q0 116 -104 176q-138 106 -138 203v13 q0 75 120 200q60 91 60 162v23q0 90 -104 164q-32 18 -58 18h-2q-52 0 -65 -91q-20 0 -34 -1160q0 -36 -52 -49q-52 13 -52 49z" />
<glyph unicode="&#xe0;" horiz-adv-x="591" d="M0 699q0 51 146 117q60 26 98 26h11q118 0 166 -145q57 -233 57 -544v-91q-5 -62 -52 -62q-27 0 -52 36h-2q-32 -7 -89 -13h-39q-153 0 -213 136q-15 39 -15 96q0 274 283 387q23 8 26 8q-16 88 -75 88q-60 0 -182 -88l-16 -3q-52 12 -52 52zM106 1051q12 52 52 52 q34 0 114 -109q34 -27 34 -52q0 -42 -54 -52q-35 0 -115 109q-31 27 -31 52zM120 250q0 -123 132 -123h24q98 8 98 24q0 191 -28 395h-3q-223 -72 -223 -296z" />
<glyph unicode="&#xe1;" horiz-adv-x="591" d="M0 699q0 51 146 117q60 26 98 26h11q118 0 166 -145q57 -233 57 -544v-91q-5 -62 -52 -62q-27 0 -52 36h-2q-32 -7 -89 -13h-39q-153 0 -213 136q-15 39 -15 96q0 274 283 387q23 8 26 8q-16 88 -75 88q-60 0 -182 -88l-16 -3q-52 12 -52 52zM120 250q0 -123 132 -123h24 q98 8 98 24q0 191 -28 395h-3q-223 -72 -223 -296zM172 962q0 23 65 88q53 73 83 73q52 -12 52 -52q0 -37 -125 -156q-19 -5 -23 -5q-52 12 -52 52z" />
<glyph unicode="&#xe2;" horiz-adv-x="591" d="M0 699q0 51 146 117q60 26 98 26h11q118 0 166 -145q57 -233 57 -544v-91q-5 -62 -52 -62q-27 0 -52 36h-2q-32 -7 -89 -13h-39q-153 0 -213 136q-15 39 -15 96q0 274 283 387q23 8 26 8q-16 88 -75 88q-60 0 -182 -88l-16 -3q-52 12 -52 52zM79 945q0 30 96 109 q49 50 73 50q34 0 101 -97q50 -50 50 -75q-12 -52 -52 -52q-33 0 -96 88q-7 6 -8 6h-3q-85 -81 -109 -81q-52 12 -52 52zM120 250q0 -123 132 -123h24q98 8 98 24q0 191 -28 395h-3q-223 -72 -223 -296z" />
<glyph unicode="&#xe3;" horiz-adv-x="591" d="M0 699q0 51 146 117q60 26 98 26h11q118 0 166 -145q57 -233 57 -544v-91q-5 -62 -52 -62q-27 0 -52 36h-2q-32 -7 -89 -13h-39q-153 0 -213 136q-15 39 -15 96q0 274 283 387q23 8 26 8q-16 88 -75 88q-60 0 -182 -88l-16 -3q-52 12 -52 52zM23 945q38 137 135 137h8 q73 0 140 -83h21q26 0 29 31q0 26 47 37q46 0 52 -63q0 -89 -123 -109h-26q-60 0 -106 70q-24 13 -37 13q-24 0 -44 -62q-21 -26 -44 -26q-42 0 -52 55zM120 250q0 -123 132 -123h24q98 8 98 24q0 191 -28 395h-3q-223 -72 -223 -296z" />
<glyph unicode="&#xe4;" horiz-adv-x="591" d="M0 699q0 51 146 117q60 26 98 26h11q118 0 166 -145q57 -233 57 -544v-91q-5 -62 -52 -62q-27 0 -52 36h-2q-32 -7 -89 -13h-39q-153 0 -213 136q-15 39 -15 96q0 274 283 387q23 8 26 8q-16 88 -75 88q-60 0 -182 -88l-16 -3q-52 12 -52 52zM79 972q10 58 57 58 q50 0 57 -63q-10 -57 -57 -57q-49 0 -57 62zM120 250q0 -123 132 -123h24q98 8 98 24q0 191 -28 395h-3q-223 -72 -223 -296zM284 972q11 58 58 58q49 0 57 -63q-11 -57 -57 -57q-50 0 -58 62z" />
<glyph unicode="&#xe5;" horiz-adv-x="591" d="M0 699q0 51 146 117q60 26 98 26h11q118 0 166 -145q57 -233 57 -544v-91q-5 -62 -52 -62q-27 0 -52 36h-2q-32 -7 -89 -13h-39q-153 0 -213 136q-15 39 -15 96q0 274 283 387q23 8 26 8q-16 88 -75 88q-60 0 -182 -88l-16 -3q-52 12 -52 52zM92 1018v2q0 117 140 138h19 q94 0 132 -109q3 -18 3 -29v-2q0 -117 -141 -138h-18q-94 0 -132 109q-3 18 -3 29zM120 250q0 -123 132 -123h24q98 8 98 24q0 191 -28 395h-3q-223 -72 -223 -296zM196 1015q7 -31 36 -31h8q42 0 42 39q-7 31 -37 31h-7q-42 0 -42 -39z" />
<glyph unicode="&#xe6;" horiz-adv-x="814" d="M0 699q0 55 161 133q37 10 52 10h11q88 0 132 -98h5q64 93 141 93h13q137 0 192 -132q21 -45 21 -130q0 -49 -104 -94q-200 -118 -205 -125v-10q0 -87 62 -203q30 -34 65 -34q40 0 73 117q21 26 44 26q42 0 52 -54q-47 -193 -169 -193h-5q-58 0 -115 47h-5 q-12 -52 -52 -52q-24 0 -52 34h-2q-54 -11 -65 -11h-37q-122 0 -182 123q-18 53 -18 109q0 282 263 395q-14 88 -55 88h-3q-44 0 -145 -85q-20 -6 -21 -6q-52 12 -52 52zM117 250q0 -123 104 -123h21q67 7 75 19q0 203 -23 395h-3q-88 -33 -138 -122q-36 -73 -36 -169z M411 478h2q9 0 211 123q0 90 -65 124q-28 8 -47 8h-5q-82 0 -96 -255z" />
<glyph unicode="&#xe7;" horiz-adv-x="574" d="M0 380v7q0 236 112 375q71 70 158 70h3q138 0 190 -195q-12 -52 -52 -52q-46 0 -68 88q-31 55 -75 55h-3q-46 0 -91 -52q-70 -119 -70 -294q0 -217 94 -273q10 -5 28 -5q99 0 135 68q16 50 16 111q20 37 49 37q47 0 52 -63v-15q0 -167 -156 -229q-11 -3 -21 -5 q1 -12 1 -27v-3l2 -13h16q70 0 112 -80q8 -28 8 -42v-16q0 -110 -169 -127h-32q-75 5 -75 39q-3 0 -5 16q12 52 52 52q33 -3 39 -3q70 0 86 23v11q-4 23 -24 23h-13q-13 0 -44 -8q-46 0 -52 63q-3 11 -7 85q-103 13 -165 168q-31 91 -31 211z" />
<glyph unicode="&#xe8;" horiz-adv-x="584" d="M0 447v13q5 276 151 356q48 16 67 16h19q197 0 239 -205q2 -23 2 -39v-13q0 -56 -85 -84q-280 -139 -281 -143q0 -75 65 -195q20 -32 80 -49h16q56 0 94 117q20 26 44 26q41 0 52 -55q-14 -70 -60 -127q-58 -65 -127 -65h-13q-96 0 -175 99q-88 146 -88 348zM104 465h3 q132 63 267 133q0 74 -65 114q-39 16 -78 16h-2q-88 0 -117 -169q-8 -63 -8 -94zM106 1041q12 52 52 52q34 0 114 -109q34 -27 34 -52q0 -42 -54 -52q-35 0 -115 109q-31 27 -31 52z" />
<glyph unicode="&#xe9;" horiz-adv-x="584" d="M0 447v13q5 276 151 356q48 16 67 16h19q197 0 239 -205q2 -23 2 -39v-13q0 -56 -85 -84q-280 -139 -281 -143q0 -75 65 -195q20 -32 80 -49h16q56 0 94 117q20 26 44 26q41 0 52 -55q-14 -70 -60 -127q-58 -65 -127 -65h-13q-96 0 -175 99q-88 146 -88 348zM104 465h3 q132 63 267 133q0 74 -65 114q-39 16 -78 16h-2q-88 0 -117 -169q-8 -63 -8 -94zM152 942q0 23 65 88q53 73 83 73q52 -12 52 -52q0 -37 -125 -156q-19 -5 -23 -5q-52 12 -52 52z" />
<glyph unicode="&#xea;" horiz-adv-x="584" d="M0 447v13q5 276 151 356q48 16 67 16h19q197 0 239 -205q2 -23 2 -39v-13q0 -56 -85 -84q-280 -139 -281 -143q0 -75 65 -195q20 -32 80 -49h16q56 0 94 117q20 26 44 26q41 0 52 -55q-14 -70 -60 -127q-58 -65 -127 -65h-13q-96 0 -175 99q-88 146 -88 348zM79 935 q0 30 96 109q49 50 73 50q34 0 101 -97q50 -50 50 -75q-12 -52 -52 -52q-33 0 -96 88q-7 6 -8 6h-3q-85 -81 -109 -81q-52 12 -52 52zM104 465h3q132 63 267 133q0 74 -65 114q-39 16 -78 16h-2q-88 0 -117 -169q-8 -63 -8 -94z" />
<glyph unicode="&#xeb;" horiz-adv-x="584" d="M0 447v13q5 276 151 356q48 16 67 16h19q197 0 239 -205q2 -23 2 -39v-13q0 -56 -85 -84q-280 -139 -281 -143q0 -75 65 -195q20 -32 80 -49h16q56 0 94 117q20 26 44 26q41 0 52 -55q-14 -70 -60 -127q-58 -65 -127 -65h-13q-96 0 -175 99q-88 146 -88 348zM79 952 q10 58 57 58q50 0 57 -63q-10 -57 -57 -57q-49 0 -57 62zM104 465h3q132 63 267 133q0 74 -65 114q-39 16 -78 16h-2q-88 0 -117 -169q-8 -63 -8 -94zM284 952q11 58 58 58q49 0 57 -63q-11 -57 -57 -57q-50 0 -58 62z" />
<glyph unicode="&#xec;" horiz-adv-x="208" d="M-70 1051q12 52 52 52q34 0 114 -109q34 -27 34 -52q0 -42 -54 -52q-35 0 -115 109q-31 27 -31 52zM8 772q12 52 52 52q52 -12 52 -52l8 -720q-12 -52 -52 -52q-52 12 -52 52z" />
<glyph unicode="&#xed;" horiz-adv-x="208" d="M-3 942q0 23 65 88q53 73 83 73q52 -12 52 -52q0 -37 -125 -156q-19 -5 -23 -5q-52 12 -52 52zM8 772q12 52 52 52q52 -12 52 -52l8 -720q-12 -52 -52 -52q-52 12 -52 52z" />
<glyph unicode="&#xee;" horiz-adv-x="208" d="M-96 925q0 30 96 109q49 50 73 50q34 0 101 -97q50 -50 50 -75q-12 -52 -52 -52q-33 0 -96 88q-7 6 -8 6h-3q-85 -81 -109 -81q-52 12 -52 52zM8 772q12 52 52 52q52 -12 52 -52l8 -720q-12 -52 -52 -52q-52 12 -52 52z" />
<glyph unicode="&#xef;" horiz-adv-x="208" d="M-96 942q10 58 57 58q50 0 57 -63q-10 -57 -57 -57q-49 0 -57 62zM8 772q12 52 52 52q52 -12 52 -52l8 -720q-12 -52 -52 -52q-52 12 -52 52zM109 942q11 58 58 58q49 0 57 -63q-11 -57 -57 -57q-50 0 -58 62z" />
<glyph unicode="&#xf0;" horiz-adv-x="624" d="M0 1147q0 41 55 52q21 0 104 -58h5q25 32 49 32q52 -12 52 -52q0 -9 -18 -50q156 -158 218 -304q68 -160 68 -354q-16 -312 -36 -312q-39 -101 -219 -101h-15q-162 0 -211 161q-13 70 -13 112q0 292 117 421q53 76 151 143v3q-33 58 -109 132h-8q-39 -93 -81 -93 q-52 12 -52 52q0 17 55 112q-17 21 -89 62q-23 19 -23 42zM143 273q0 -65 23 -122q29 -47 104 -47q133 0 133 47q16 29 26 268q0 192 -70 322q-91 -43 -164 -174q-52 -98 -52 -294z" />
<glyph unicode="&#xf1;" horiz-adv-x="587" d="M0 86q0 129 3 200q-3 175 -3 369v94q6 62 52 62t52 -62v-8h3q69 91 150 91h8q171 0 208 -359q5 -110 5 -184v-3q-1 -222 -21 -262q-20 -21 -41 -21q-42 0 -52 54q10 138 10 234q0 346 -83 427q-12 10 -31 10q-103 0 -143 -328q-10 -38 -10 -208v-130q-6 -62 -52 -62 q-55 0 -55 86zM23 945q38 137 135 137h8q73 0 140 -83h21q26 0 29 31q0 26 47 37q46 0 52 -63q0 -89 -123 -109h-26q-60 0 -106 70q-24 13 -37 13q-24 0 -44 -62q-21 -26 -44 -26q-42 0 -52 55z" />
<glyph unicode="&#xf2;" horiz-adv-x="584" d="M0 367v7q0 372 122 437q49 29 96 31q221 0 258 -317q2 -44 2 -86q0 -197 -72 -345q-67 -94 -156 -94h-11q-115 0 -203 135q-36 71 -36 232zM104 369q0 -169 42 -213q47 -52 104 -52q85 0 114 211q10 60 10 130q0 210 -88 278q-31 15 -68 15q-38 0 -70 -46 q-44 -97 -44 -323zM106 1061q12 52 52 52q34 0 114 -109q34 -27 34 -52q0 -42 -54 -52q-35 0 -115 109q-31 27 -31 52z" />
<glyph unicode="&#xf3;" horiz-adv-x="584" d="M0 367v7q0 372 122 437q49 29 96 31q221 0 258 -317q2 -44 2 -86q0 -197 -72 -345q-67 -94 -156 -94h-11q-115 0 -203 135q-36 71 -36 232zM104 369q0 -169 42 -213q47 -52 104 -52q85 0 114 211q10 60 10 130q0 210 -88 278q-31 15 -68 15q-38 0 -70 -46 q-44 -97 -44 -323zM172 952q0 23 65 88q53 73 83 73q52 -12 52 -52q0 -37 -125 -156q-19 -5 -23 -5q-52 12 -52 52z" />
<glyph unicode="&#xf4;" horiz-adv-x="584" d="M0 367v7q0 372 122 437q49 29 96 31q221 0 258 -317q2 -44 2 -86q0 -197 -72 -345q-67 -94 -156 -94h-11q-115 0 -203 135q-36 71 -36 232zM79 935q0 30 96 109q49 50 73 50q34 0 101 -97q50 -50 50 -75q-12 -52 -52 -52q-33 0 -96 88q-7 6 -8 6h-3q-85 -81 -109 -81 q-52 12 -52 52zM104 369q0 -169 42 -213q47 -52 104 -52q85 0 114 211q10 60 10 130q0 210 -88 278q-31 15 -68 15q-38 0 -70 -46q-44 -97 -44 -323z" />
<glyph unicode="&#xf5;" horiz-adv-x="584" d="M0 367v7q0 372 122 437q49 29 96 31q221 0 258 -317q2 -44 2 -86q0 -197 -72 -345q-67 -94 -156 -94h-11q-115 0 -203 135q-36 71 -36 232zM23 935q38 137 135 137h8q73 0 140 -83h21q26 0 29 31q0 26 47 37q46 0 52 -63q0 -89 -123 -109h-26q-60 0 -106 70 q-24 13 -37 13q-24 0 -44 -62q-21 -26 -44 -26q-42 0 -52 55zM104 369q0 -169 42 -213q47 -52 104 -52q85 0 114 211q10 60 10 130q0 210 -88 278q-31 15 -68 15q-38 0 -70 -46q-44 -97 -44 -323z" />
<glyph unicode="&#xf6;" horiz-adv-x="584" d="M0 367v7q0 372 122 437q49 29 96 31q221 0 258 -317q2 -44 2 -86q0 -197 -72 -345q-67 -94 -156 -94h-11q-115 0 -203 135q-36 71 -36 232zM79 952q10 58 57 58q50 0 57 -63q-10 -57 -57 -57q-49 0 -57 62zM104 369q0 -169 42 -213q47 -52 104 -52q85 0 114 211 q10 60 10 130q0 210 -88 278q-31 15 -68 15q-38 0 -70 -46q-44 -97 -44 -323zM284 952q11 58 58 58q49 0 57 -63q-11 -57 -57 -57q-50 0 -58 62z" />
<glyph unicode="&#xf7;" horiz-adv-x="652" d="M0 592q0 46 62 52h409q62 -6 62 -52t-62 -52h-409q-62 6 -62 52zM200 422q10 58 57 58q50 0 57 -63q-10 -57 -57 -57q-49 0 -57 62zM200 772q10 58 57 58q50 0 57 -63q-10 -57 -57 -57q-49 0 -57 62z" />
<glyph unicode="&#xf8;" horiz-adv-x="600" d="M0 52q0 16 52 112q-29 75 -29 216v7q0 372 123 437q49 29 96 31q82 0 143 -46h2q31 59 65 59q52 -12 52 -52q0 -10 -46 -106q44 -108 44 -258q0 -197 -73 -345q-67 -94 -156 -94h-10q-65 0 -138 55h-8q-24 -68 -65 -68q-52 12 -52 52zM127 348l3 -26h3q17 22 202 385v3 q-28 41 -93 41q-35 0 -68 -41q-47 -93 -47 -330v-32zM174 169q8 -25 70 -49q15 -3 29 -3q85 0 114 211q11 60 11 130q0 59 -8 114h-5q-207 -384 -211 -403z" />
<glyph unicode="&#xf9;" horiz-adv-x="579" d="M0 543v3q0 216 21 262q15 20 41 21q42 0 52 -54q-10 -138 -10 -234q0 -356 88 -432q17 -5 24 -5h2q104 0 143 328q11 38 11 208v130q6 62 52 62q54 0 54 -86q0 -129 -2 -200q2 -175 2 -369v-94q-5 -62 -52 -62q-46 0 -52 62v8h-2q-72 -91 -151 -91h-8q-170 0 -208 359 q-5 110 -5 184zM106 1021q12 52 52 52q34 0 114 -109q34 -27 34 -52q0 -42 -54 -52q-35 0 -115 109q-31 27 -31 52z" />
<glyph unicode="&#xfa;" horiz-adv-x="579" d="M0 543v3q0 216 21 262q15 20 41 21q42 0 52 -54q-10 -138 -10 -234q0 -356 88 -432q17 -5 24 -5h2q104 0 143 328q11 38 11 208v130q6 62 52 62q54 0 54 -86q0 -129 -2 -200q2 -175 2 -369v-94q-5 -62 -52 -62q-46 0 -52 62v8h-2q-72 -91 -151 -91h-8q-170 0 -208 359 q-5 110 -5 184zM172 922q0 23 65 88q53 73 83 73q52 -12 52 -52q0 -37 -125 -156q-19 -5 -23 -5q-52 12 -52 52z" />
<glyph unicode="&#xfb;" horiz-adv-x="579" d="M0 543v3q0 216 21 262q15 20 41 21q42 0 52 -54q-10 -138 -10 -234q0 -356 88 -432q17 -5 24 -5h2q104 0 143 328q11 38 11 208v130q6 62 52 62q54 0 54 -86q0 -129 -2 -200q2 -175 2 -369v-94q-5 -62 -52 -62q-46 0 -52 62v8h-2q-72 -91 -151 -91h-8q-170 0 -208 359 q-5 110 -5 184zM79 925q0 30 96 109q49 50 73 50q34 0 101 -97q50 -50 50 -75q-12 -52 -52 -52q-33 0 -96 88q-7 6 -8 6h-3q-85 -81 -109 -81q-52 12 -52 52z" />
<glyph unicode="&#xfc;" horiz-adv-x="579" d="M0 543v3q0 216 21 262q15 20 41 21q42 0 52 -54q-10 -138 -10 -234q0 -356 88 -432q17 -5 24 -5h2q104 0 143 328q11 38 11 208v130q6 62 52 62q54 0 54 -86q0 -129 -2 -200q2 -175 2 -369v-94q-5 -62 -52 -62q-46 0 -52 62v8h-2q-72 -91 -151 -91h-8q-170 0 -208 359 q-5 110 -5 184zM79 952q10 58 57 58q50 0 57 -63q-10 -57 -57 -57q-49 0 -57 62zM284 952q11 58 58 58q49 0 57 -63q-11 -57 -57 -57q-50 0 -58 62z" />
<glyph unicode="&#xfd;" horiz-adv-x="579" d="M0 543v3q0 265 26 265q16 18 36 18q42 0 52 -54q-10 -138 -10 -234q0 -356 88 -432q17 -5 24 -5h2q104 0 143 328q11 38 11 208v130q6 62 52 62q54 0 54 -86q0 -134 -2 -197q2 -183 2 -372v-102q0 -246 -179 -322q-10 -5 -49 -13q-52 12 -52 52q0 44 75 62 q101 46 101 229v8h-2q-72 -91 -151 -91h-8q-170 0 -208 359q-5 110 -5 184zM172 902q0 23 65 88q53 73 83 73q52 -12 52 -52q0 -37 -125 -156q-19 -5 -23 -5q-52 12 -52 52z" />
<glyph unicode="&#xfe;" horiz-adv-x="630" d="M0 62v1280q6 62 52 62t52 -62v-323h5q113 102 208 102h11q141 0 189 -250q16 -91 16 -159v-2q0 -307 -153 -390q-61 -39 -143 -39h-21q-60 0 -104 15q-5 -2 -8 -2v-232q-6 -62 -52 -62t-52 62zM104 406q58 -21 120 -21h5q128 0 169 112q31 61 31 215q-19 288 -91 302 l-16 3h-5q-80 0 -210 -149q-3 -4 -3 -10v-452z" />
<glyph unicode="&#xff;" horiz-adv-x="579" d="M0 543v3q0 265 26 265q16 18 36 18q42 0 52 -54q-10 -138 -10 -234q0 -356 88 -432q17 -5 24 -5h2q104 0 143 328q11 38 11 208v130q6 62 52 62q54 0 54 -86q0 -134 -2 -197q2 -183 2 -372v-102q0 -246 -179 -322q-10 -5 -49 -13q-52 12 -52 52q0 44 75 62 q101 46 101 229v8h-2q-72 -91 -151 -91h-8q-170 0 -208 359q-5 110 -5 184zM79 952q10 58 57 58q50 0 57 -63q-10 -57 -57 -57q-49 0 -57 62zM284 952q11 58 58 58q49 0 57 -63q-11 -57 -57 -57q-50 0 -58 62z" />
<glyph unicode="&#x152;" horiz-adv-x="911" d="M0 757q0 491 81 561q64 86 158 86h5q80 0 151 -78q28 -46 31 -49h3q0 80 94 111q60 16 111 16h8q180 0 180 -36q3 0 7 -24q0 -45 -59 -52q-56 8 -133 8q-104 0 -104 -36q-19 -142 -36 -505h2q75 0 239 5q52 -12 52 -52q0 -46 -62 -52q-131 -5 -205 -5q-23 -2 -29 -2 q-5 -63 -5 -151v-52q0 -343 34 -343q14 -3 23 -3q92 0 252 49q55 -10 55 -52q0 -54 -133 -75q-91 -26 -166 -26h-13q-98 3 -128 73q-78 -73 -156 -73h-18q-116 0 -195 127q-44 117 -44 630zM104 751q0 -449 36 -585q44 -62 104 -62h8q90 0 115 122q18 135 18 310 q0 410 -50 676q-13 49 -39 67q-28 21 -59 21q-105 0 -120 -226q-7 0 -13 -323z" />
<glyph unicode="&#x153;" horiz-adv-x="819" d="M0 372q0 346 86 424q59 46 106 46q103 0 169 -104q6 0 24 32q56 67 119 67h13q138 0 193 -138q18 -53 18 -96v-23q0 -55 -86 -89l-221 -135q20 -130 39 -166q36 -81 86 -81q40 0 73 117q21 26 44 26q42 0 52 -54q-46 -193 -166 -193h-6q-93 0 -156 102q-9 22 -15 23 q-61 -130 -154 -130h-13q-91 0 -163 117q-42 63 -42 255zM104 369q0 -209 60 -242q22 -23 47 -23q73 0 96 239q5 60 5 102q-8 224 -68 275q-20 18 -49 18q-91 0 -91 -369zM416 478q12 0 208 123v2q0 94 -68 122q-21 8 -39 8h-5q-82 0 -96 -255z" />
<glyph unicode="&#x178;" horiz-adv-x="608" d="M0 1344q12 52 52 52q51 0 78 -122l148 -419h3q145 488 161 528q21 20 42 21q41 0 52 -55l-203 -694v-593q-6 -62 -52 -62t-52 62v606q-219 637 -229 676zM108 1502q10 58 57 58q50 0 57 -63q-10 -57 -57 -57q-49 0 -57 62zM313 1502q11 58 58 58q49 0 57 -63 q-11 -57 -57 -57q-50 0 -58 62z" />
<glyph unicode="&#x2c6;" horiz-adv-x="407" d="M0 1065q0 30 96 109q49 50 73 50q34 0 101 -97q50 -50 50 -75q-12 -52 -52 -52q-33 0 -96 88q-7 6 -8 6h-3q-85 -81 -109 -81q-52 12 -52 52z" />
<glyph unicode="&#x2dc;" horiz-adv-x="513" d="M0 1155q38 137 135 137h8q73 0 140 -83h21q26 0 29 31q0 26 47 37q46 0 52 -63q0 -89 -123 -109h-26q-60 0 -106 70q-24 13 -37 13q-24 0 -44 -62q-21 -26 -44 -26q-42 0 -52 55z" />
<glyph unicode="&#x2000;" horiz-adv-x="844" />
<glyph unicode="&#x2001;" horiz-adv-x="1688" />
<glyph unicode="&#x2002;" horiz-adv-x="844" />
<glyph unicode="&#x2003;" horiz-adv-x="1688" />
<glyph unicode="&#x2004;" horiz-adv-x="562" />
<glyph unicode="&#x2005;" horiz-adv-x="422" />
<glyph unicode="&#x2006;" horiz-adv-x="281" />
<glyph unicode="&#x2007;" horiz-adv-x="281" />
<glyph unicode="&#x2008;" horiz-adv-x="211" />
<glyph unicode="&#x2009;" horiz-adv-x="337" />
<glyph unicode="&#x200a;" horiz-adv-x="93" />
<glyph unicode="&#x2010;" horiz-adv-x="618" d="M0 592q0 46 62 52h409q62 -6 62 -52t-62 -52h-409q-62 6 -62 52z" />
<glyph unicode="&#x2011;" horiz-adv-x="618" d="M0 592q0 46 62 52h409q62 -6 62 -52t-62 -52h-409q-62 6 -62 52z" />
<glyph unicode="&#x2012;" horiz-adv-x="618" d="M0 592q0 46 62 52h409q62 -6 62 -52t-62 -52h-409q-62 6 -62 52z" />
<glyph unicode="&#x2013;" horiz-adv-x="820" d="M0 712q0 43 57 52l616 3q55 -11 55 -52q0 -44 -57 -52q-535 -3 -616 -3q-55 10 -55 52z" />
<glyph unicode="&#x2014;" horiz-adv-x="1167" d="M0 802q0 46 62 52h923q63 -6 63 -52t-63 -52h-923q-62 6 -62 52z" />
<glyph unicode="&#x2018;" horiz-adv-x="205" d="M0 1188v93q6 63 52 63t52 -63v-65q10 -33 10 -41q0 -47 -57 -55q-54 10 -54 52q-3 0 -3 16z" />
<glyph unicode="&#x2019;" horiz-adv-x="202" d="M0 1289q0 47 57 55q55 -10 55 -52q2 0 2 -16v-94q-5 -62 -52 -62q-46 0 -52 62v65q-10 33 -10 42z" />
<glyph unicode="&#x201a;" horiz-adv-x="199" d="M0 89q0 47 57 55q55 -10 55 -52q2 0 2 -16v-94q-5 -62 -52 -62q-46 0 -52 62v65q-10 33 -10 42z" />
<glyph unicode="&#x201c;" horiz-adv-x="407" d="M0 1188v93q6 63 52 63t52 -63v-65q10 -33 10 -41q0 -47 -57 -55q-54 10 -54 52q-3 0 -3 16zM200 1188v93q6 63 52 63t52 -63v-65q10 -33 10 -41q0 -47 -57 -55q-54 10 -54 52q-3 0 -3 16z" />
<glyph unicode="&#x201d;" horiz-adv-x="404" d="M0 1289q0 47 57 55q55 -10 55 -52q2 0 2 -16v-94q-5 -62 -52 -62q-46 0 -52 62v65q-10 33 -10 42zM200 1289q0 47 57 55q55 -10 55 -52q2 0 2 -16v-94q-5 -62 -52 -62q-46 0 -52 62v65q-10 33 -10 42z" />
<glyph unicode="&#x201e;" horiz-adv-x="404" d="M0 89q0 47 57 55q55 -10 55 -52q2 0 2 -16v-94q-5 -62 -52 -62q-46 0 -52 62v65q-10 33 -10 42zM200 89q0 47 57 55q55 -10 55 -52q2 0 2 -16v-94q-5 -62 -52 -62q-46 0 -52 62v65q-10 33 -10 42z" />
<glyph unicode="&#x2022;" horiz-adv-x="404" d="M0 708v18q0 85 101 123q21 7 39 7h19q97 0 137 -106l6 -39q0 -96 -104 -143q-28 -8 -42 -8h-13q-91 0 -135 107q-8 27 -8 41z" />
<glyph unicode="&#x2026;" horiz-adv-x="696" d="M0 62q10 58 57 58q50 0 57 -63q-10 -57 -57 -57q-49 0 -57 62zM200 62q10 58 57 58q50 0 57 -63q-10 -57 -57 -57q-49 0 -57 62zM400 62q10 58 57 58q50 0 57 -63q-10 -57 -57 -57q-49 0 -57 62z" />
<glyph unicode="&#x202f;" horiz-adv-x="337" />
<glyph unicode="&#x2039;" horiz-adv-x="299" d="M0 470q88 340 101 370q21 26 45 26q41 0 52 -55q-89 -325 -89 -338q99 -206 99 -221q-12 -52 -52 -52q-45 0 -88 120q-68 131 -68 150z" />
<glyph unicode="&#x203a;" horiz-adv-x="302" d="M0 814q12 52 52 52q49 0 73 -104q86 -224 86 -242q0 -22 -107 -299q-21 -20 -42 -21q-41 0 -52 55l91 267q-96 265 -101 292z" />
<glyph unicode="&#x205f;" horiz-adv-x="422" />
<glyph unicode="&#x20ac;" horiz-adv-x="706" d="M0 796q0 46 62 52h37q0 109 67 364q45 116 107 163q31 29 107 29q151 0 200 -174q10 -49 10 -91v-5q-6 -63 -52 -63q-54 0 -54 99q-16 127 -91 127q0 3 -21 3q-61 0 -89 -83q-38 -80 -62 -224q-16 -102 -16 -145h3q80 -3 127 -3h112q63 -6 63 -52t-63 -52h-119 q-40 0 -130 3l-3 -26v-58h3q66 0 231 6q52 -12 52 -52q0 -52 -83 -52q-80 -6 -193 -6q-5 -2 -7 -2q0 -101 33 -265q48 -185 128 -185q104 0 138 65q23 52 23 127q0 25 -8 71q11 54 52 54q60 0 60 -127q0 -247 -200 -289q-34 -5 -63 -5h-10q-190 0 -247 411q-8 58 -10 140 h-21q-63 6 -63 52t63 52h18v89h-29q-62 5 -62 52z" />
<glyph unicode="&#x2122;" horiz-adv-x="1065" d="M0 1236q0 46 62 52h422q56 0 83 -83q74 -137 112 -219h5q112 241 138 289q18 14 36 16q57 0 57 -112q3 0 57 -564q-12 -52 -52 -52q-59 0 -59 130q-34 330 -34 340h-3q-10 -12 -91 -195q-23 -28 -47 -28q-45 0 -91 119q-53 102 -57 102h-2q-29 -383 -34 -432 q-20 -36 -50 -36q-52 12 -52 52q39 541 39 569h-106v-562q-6 -62 -52 -62t-52 62v562h-167q-62 6 -62 52z" />
<glyph unicode="&#x25fc;" horiz-adv-x="840" d="M0 0v840h840v-840h-840z" />
</font>
</defs>
</svg>
